<?xml version="1.0" standalone="no"?>
<!DOCTYPE svg PUBLIC "-//W3C//DTD SVG 20010904//EN"
 "http://www.w3.org/TR/2001/REC-SVG-20010904/DTD/svg10.dtd">
<svg version="1.0" xmlns="http://www.w3.org/2000/svg"
 width="2500.000000pt" height="1875.000000pt" viewBox="0 0 2500.000000 1875.000000"
 preserveAspectRatio="xMidYMid meet">

<g transform="translate(0.000000,1875.000000) scale(0.100000,-0.100000)"
fill="#000000" stroke="none">
<path d="M19588 17590 c-80 -31 -185 -60 -280 -80 -181 -37 -276 -74 -551
-212 -161 -81 -263 -143 -540 -327 -188 -126 -414 -272 -502 -326 -88 -53
-209 -129 -270 -168 -60 -39 -216 -127 -345 -195 -519 -274 -577 -311 -979
-625 -219 -172 -250 -200 -357 -325 -65 -75 -197 -218 -293 -317 -97 -99 -225
-234 -285 -299 -65 -70 -209 -203 -355 -328 -219 -187 -258 -225 -356 -347
-119 -149 -344 -408 -394 -456 l-31 -29 -54 26 c-63 31 -343 271 -612 524
-192 181 -361 326 -919 785 -935 768 -1343 1061 -1855 1327 -74 38 -159 77
-188 87 -49 16 -54 16 -90 -2 -30 -14 -44 -32 -74 -93 -40 -81 -49 -145 -26
-197 28 -62 121 -219 149 -250 16 -19 29 -41 29 -51 0 -9 13 -42 28 -72 83
-162 107 -203 127 -212 17 -8 24 -21 28 -60 4 -31 16 -63 32 -83 14 -19 25
-41 25 -50 0 -19 36 -91 50 -100 5 -3 10 -20 10 -37 0 -16 7 -44 15 -61 8 -18
24 -56 35 -86 12 -30 39 -88 61 -130 21 -41 39 -82 39 -92 0 -9 14 -43 30 -74
17 -31 30 -63 30 -70 0 -7 16 -44 35 -81 19 -38 35 -74 35 -80 0 -6 15 -42 33
-80 19 -38 40 -89 46 -114 7 -25 26 -70 42 -100 15 -30 37 -89 48 -130 21 -81
79 -254 104 -310 8 -19 34 -93 58 -165 69 -210 87 -263 95 -277 5 -7 18 -49
30 -93 56 -213 75 -277 86 -298 14 -25 14 -30 24 -278 l7 -186 67 -108 67
-107 -24 -106 c-49 -223 -113 -405 -230 -656 -66 -141 -72 -183 -29 -204 35
-17 70 -7 224 64 50 23 92 41 92 39 0 -3 -19 -48 -42 -102 -33 -79 -60 -122
-137 -217 -278 -345 -448 -514 -753 -748 -285 -219 -638 -394 -1208 -598 -442
-159 -882 -266 -1635 -396 -176 -30 -520 -91 -765 -135 -538 -97 -740 -120
-970 -108 -242 12 -462 56 -767 153 -191 61 -220 67 -361 73 -104 5 -131 3
-177 -13 -49 -16 -56 -22 -65 -54 -20 -70 -12 -103 50 -224 47 -92 63 -135 76
-206 9 -49 14 -96 11 -104 -9 -23 -73 -52 -208 -92 -154 -45 -262 -55 -340
-29 -107 35 -274 186 -382 345 -87 129 -318 660 -597 1370 -192 488 -491 1122
-828 1755 -211 397 -469 789 -757 1150 -215 270 -648 638 -825 700 -88 31
-132 15 -145 -56 -8 -46 31 -148 95 -244 137 -206 187 -302 346 -674 79 -183
188 -408 226 -465 13 -19 65 -89 117 -157 201 -264 332 -619 695 -1884 192
-672 288 -1115 361 -1675 43 -331 30 -538 -55 -871 -24 -93 -244 -706 -331
-922 -170 -421 -505 -1003 -799 -1390 -58 -76 -147 -193 -198 -260 -110 -145
-152 -227 -152 -295 0 -66 17 -94 69 -113 41 -15 50 -15 131 2 129 27 318 100
539 209 293 145 503 279 771 492 154 122 286 266 491 538 130 171 294 403 323
455 9 17 41 68 71 115 31 47 93 162 140 255 161 326 197 375 282 382 46 4 57
-1 248 -107 279 -157 338 -198 370 -261 24 -46 15 -117 -30 -230 -36 -89 -37
-95 -26 -146 13 -57 27 -71 116 -115 145 -73 406 -81 600 -18 148 48 216 58
326 49 179 -14 156 -3 709 -333 135 -81 255 -159 267 -174 13 -15 23 -38 23
-51 0 -67 -199 -297 -431 -498 -175 -152 -391 -316 -701 -532 -257 -179 -308
-225 -354 -318 -25 -51 -25 -52 -8 -76 15 -20 36 -27 110 -40 81 -15 104 -15
210 -2 187 22 527 96 799 175 244 71 680 221 760 262 22 11 72 31 110 44 39
13 75 31 82 40 6 9 16 13 21 10 18 -11 547 231 606 277 17 14 55 44 85 68 30
24 79 63 110 86 31 23 63 49 72 58 9 8 23 15 32 15 9 0 18 4 21 9 9 14 54 0
80 -26 17 -17 25 -20 29 -11 5 13 8 8 22 -38 4 -13 8 -14 20 -4 12 10 15 9 15
-4 0 -12 -10 -16 -48 -16 -27 0 -80 -11 -118 -24 -126 -43 -234 -87 -234 -96
0 -19 56 -72 108 -103 32 -18 86 -42 122 -52 125 -38 460 -19 671 38 l83 23
241 -79 c307 -101 736 -219 1135 -313 295 -70 338 -77 685 -119 407 -49 652
-63 1485 -90 256 -8 575 -20 710 -25 405 -16 812 -12 1100 10 140 11 266 22
280 24 14 2 66 11 115 20 50 8 128 21 175 27 64 10 79 14 60 20 -28 8 -24 10
41 14 25 1 57 10 72 19 14 10 49 19 78 20 29 2 54 7 56 13 2 6 17 9 33 7 17
-2 36 3 44 12 9 8 26 16 38 17 25 1 81 27 60 27 -7 0 -10 5 -7 11 4 6 -1 17
-11 25 -17 12 -15 12 14 3 22 -8 31 -16 28 -25 -3 -8 -1 -14 4 -14 6 0 10 4
10 9 0 15 83 58 125 64 28 5 34 4 20 -3 -14 -6 -16 -9 -4 -9 8 -1 24 6 35 14
10 8 33 15 50 15 17 0 55 8 85 18 30 11 60 17 67 14 7 -2 20 4 28 14 9 11 13
13 9 7 -10 -20 19 -15 80 12 31 14 60 23 65 20 6 -3 10 1 10 9 0 17 -15 22
-24 7 -3 -5 -15 -11 -26 -14 -17 -4 -19 -3 -9 9 9 11 8 14 -5 14 -9 0 -16 4
-16 9 0 5 -7 12 -16 15 -8 3 -13 2 -10 -3 3 -5 -5 -11 -19 -13 -13 -3 -22 -1
-19 4 3 5 0 15 -6 23 -10 12 -10 15 1 15 11 0 11 2 -1 10 -13 8 -12 10 3 10 9
0 17 4 17 9 0 5 10 7 22 3 15 -4 19 -2 13 8 -5 8 -3 11 6 8 21 -7 18 -31 -6
-45 -28 -17 -3 -16 30 1 17 9 22 16 13 19 -9 4 -8 6 3 6 9 1 28 10 42 21 25
20 27 20 54 3 22 -14 27 -25 26 -48 -9 -102 -39 -235 -158 -695 -133 -513
-134 -516 -235 -760 -56 -135 -152 -355 -213 -490 -105 -232 -119 -256 -256
-455 -80 -115 -195 -277 -255 -360 -60 -82 -206 -296 -324 -474 -205 -310
-216 -330 -253 -440 -22 -63 -39 -124 -39 -134 0 -34 43 -12 233 115 159 107
210 149 446 367 322 298 304 280 581 576 124 131 282 298 351 370 187 193 233
246 421 489 94 121 195 250 223 286 277 351 342 441 330 460 -3 5 0 10 7 10 8
0 20 16 27 35 7 19 17 35 22 35 6 0 7 5 3 12 -4 6 1 17 12 25 15 11 16 15 6
22 -12 7 -12 12 0 30 7 12 19 19 27 16 9 -3 11 0 7 10 -3 9 0 15 8 15 18 0 30
31 16 40 -6 4 -1 11 12 19 30 16 79 110 72 137 -8 32 19 87 52 104 35 18 44
29 37 47 -3 7 1 13 9 13 8 0 22 15 31 33 9 17 38 73 65 122 27 50 47 96 44
104 -2 7 -1 16 4 20 17 12 67 91 61 97 -3 3 6 26 19 51 14 24 23 51 20 59 -4
9 -2 12 5 8 7 -4 9 0 5 14 -4 11 -2 23 4 27 5 3 10 15 10 26 0 10 5 19 10 19
6 0 10 11 10 25 0 14 9 36 20 47 11 13 18 29 15 39 -3 10 -1 20 5 24 7 4 9 18
6 31 -4 13 -2 24 4 24 5 0 12 11 16 25 3 14 12 25 20 25 7 0 19 10 25 23 7 12
18 26 25 30 8 4 17 26 20 47 6 37 24 56 24 28 1 -7 9 5 20 27 10 22 14 41 9
43 -5 2 -4 12 2 24 6 11 8 27 4 35 -3 10 7 32 25 55 17 21 30 44 27 51 -2 6 7
20 19 30 13 10 21 24 17 32 -3 9 1 15 11 15 18 0 49 28 66 60 10 18 9 21 0 15
-10 -6 -11 -1 -6 19 5 19 2 28 -9 32 -8 3 -12 11 -9 16 4 6 10 5 15 -3 7 -11
9 -9 9 6 1 16 3 14 13 -8 l12 -29 23 47 c13 26 21 50 18 53 -3 2 -11 -8 -17
-24 l-11 -29 -9 24 c-6 14 -14 30 -20 37 -8 9 -4 11 13 7 22 -4 22 -4 4 11
-21 17 -14 36 15 36 11 0 19 7 19 17 0 13 3 12 19 -5 18 -21 18 -21 13 28 -3
33 -1 50 7 50 6 0 11 5 11 10 0 6 -7 10 -15 10 -8 0 -15 5 -15 10 0 6 5 9 11
8 14 -4 61 85 63 118 1 23 26 35 26 13 0 -5 5 -7 10 -4 6 4 9 12 8 18 -2 7 6
26 18 42 30 43 75 163 80 210 2 22 6 52 9 67 5 19 0 32 -15 46 l-21 20 20 19
c21 20 27 58 15 105 -10 42 4 98 24 98 14 0 14 2 3 9 -17 11 -5 32 14 24 10
-3 15 1 15 12 0 9 -4 14 -9 11 -5 -3 -11 2 -14 12 -2 9 -8 26 -12 37 -6 19 -6
19 9 1 17 -21 36 -14 36 15 0 13 7 19 21 19 11 0 17 5 14 10 -3 6 2 10 13 10
10 0 29 9 42 20 13 11 26 20 30 20 4 0 10 8 14 18 3 9 9 24 14 32 63 108 76
140 65 170 -4 14 -15 25 -23 25 -10 0 -14 8 -11 25 l3 25 -22 -20 -23 -20 6
25 c6 28 -4 61 -18 63 -6 1 -11 16 -12 32 -1 17 -5 46 -9 65 -7 34 -7 35 13
17 20 -18 33 -14 33 10 0 8 -4 11 -10 8 -5 -3 -10 -1 -10 5 0 7 8 9 20 6 11
-3 29 -9 40 -12 12 -3 20 -1 20 6 0 7 6 10 14 7 7 -3 19 0 25 6 9 9 14 8 22
-3 8 -13 11 -13 20 3 9 15 12 16 25 2 18 -18 30 -19 39 -5 5 8 11 8 20 0 9 -8
14 -6 19 5 3 8 0 15 -6 15 -6 0 -9 2 -6 5 10 11 59 -18 54 -32 -3 -7 -3 -13 0
-13 2 0 9 11 14 25 5 14 14 25 20 25 6 0 9 -4 5 -10 -10 -17 65 -3 87 16 19
17 21 17 15 2 -3 -10 -1 -20 5 -24 7 -5 8 -2 3 6 -6 10 -4 12 8 7 9 -3 19 -1
23 5 5 7 9 7 13 -1 5 -7 14 -4 29 9 12 12 22 16 22 9 0 -6 7 -8 16 -5 8 3 22
-1 31 -10 19 -18 31 -10 14 10 -8 10 -9 16 -1 21 5 3 10 2 10 -3 0 -6 6 -12
14 -15 9 -4 12 0 9 13 -3 10 0 21 6 24 6 4 11 0 11 -8 0 -8 5 -18 10 -21 6 -4
10 -3 9 2 -5 27 21 63 44 63 7 0 6 -4 -3 -10 -8 -5 -12 -12 -8 -15 3 -4 15 2
26 13 17 17 20 17 31 3 9 -12 13 -13 17 -3 7 14 24 16 24 2 0 -5 -15 -16 -32
-24 -22 -10 -27 -15 -15 -15 11 -1 39 20 65 46 25 26 47 42 49 36 3 -8 14 -9
36 -2 43 12 44 12 21 -7 -13 -11 -15 -17 -6 -20 6 -3 10 -10 6 -15 -10 -16 13
-9 29 9 10 10 14 22 10 27 -5 4 2 2 15 -4 24 -13 30 -26 7 -18 -19 8 -30 -12
-15 -26 10 -9 11 -9 6 1 -4 6 -2 12 4 12 7 0 23 9 37 20 14 11 39 20 54 20 16
0 29 5 29 11 0 6 8 8 19 4 12 -4 21 0 25 11 4 11 13 14 27 11 12 -3 22 0 26 9
3 8 17 14 32 14 20 0 23 2 11 10 -8 5 -12 12 -8 15 3 3 13 -1 21 -10 12 -11
18 -12 23 -3 4 6 2 14 -4 16 -8 2 -7 9 4 19 9 10 14 26 11 40 -2 13 2 30 9 38
9 9 10 16 4 20 -5 3 -10 1 -10 -6 0 -10 -3 -10 -12 -1 -10 10 -10 17 0 32 16
26 15 28 -5 33 -11 3 -7 5 10 6 15 0 27 -4 27 -10 0 -5 6 -7 13 -4 6 4 1 -3
-13 -14 -33 -27 -18 -27 26 2 21 13 37 33 41 50 3 15 10 27 15 27 6 0 7 -12 4
-27 -5 -22 -4 -25 4 -13 9 11 13 12 17 3 9 -25 38 -12 60 26 17 29 19 41 10
50 -9 10 -8 11 6 5 12 -4 16 -12 11 -23 -14 -35 -16 -51 -6 -51 6 0 16 8 22
18 9 14 10 13 4 -8 -6 -24 -6 -24 10 -5 18 24 22 60 4 49 -7 -4 -8 -3 -4 5 11
18 26 3 26 -27 l1 -27 13 30 c13 31 10 65 -5 65 -5 0 -9 -4 -9 -10 0 -5 -4
-10 -10 -10 -6 0 -6 9 0 25 9 23 8 25 -10 15 -12 -6 -21 -7 -25 0 -4 6 -13 5
-25 -2 -10 -7 -17 -15 -14 -19 9 -16 -15 -18 -30 -3 -24 24 -19 42 15 60 30
15 32 15 25 -1 -5 -15 -4 -16 8 -6 8 7 19 10 25 7 5 -3 12 1 15 10 4 9 13 14
22 10 8 -3 12 -2 9 4 -3 6 5 10 19 10 18 0 24 4 20 14 -3 8 -1 17 5 21 6 3 11
1 11 -4 0 -6 6 -11 14 -11 8 0 13 8 12 18 0 10 6 16 16 16 10 -1 16 1 14 5 -6
10 72 82 79 72 3 -5 1 -12 -5 -16 -14 -9 -32 -45 -23 -45 5 0 19 20 33 44 13
25 34 50 47 57 13 7 23 19 23 26 0 11 -8 9 -30 -7 -16 -12 -30 -18 -30 -13 0
4 -4 3 -8 -3 -10 -15 -74 -45 -65 -31 10 17 10 51 -1 58 -5 4 1 12 13 19 20
10 23 9 28 -9 3 -12 13 -21 22 -20 10 0 11 2 4 6 -7 2 -13 11 -13 18 0 7 -7
15 -15 19 -8 3 -15 13 -15 22 0 11 5 14 16 10 12 -4 15 -2 11 9 -4 8 -1 17 5
21 7 4 2 14 -13 26 -22 18 -22 18 -2 9 17 -9 25 -7 37 5 9 9 14 20 11 25 -4 5
3 9 14 9 28 0 37 -3 33 -12 -5 -17 8 -7 19 13 11 21 10 22 -19 16 -18 -4 -34
-2 -38 4 -4 7 -9 7 -13 2 -3 -5 -25 -15 -48 -21 -24 -7 -43 -17 -43 -22 0 -6
-5 -10 -11 -10 -5 0 -7 5 -3 11 3 6 1 14 -5 18 -15 10 21 27 71 36 37 6 44 18
23 41 -13 14 -49 12 -68 -4 -7 -7 -17 -9 -21 -5 -9 10 -35 -29 -29 -44 3 -8
-8 -19 -27 -26 -17 -8 -31 -18 -31 -23 1 -13 -22 -11 -26 1 -2 6 13 17 33 24
19 7 33 15 30 18 -3 4 -1 12 6 20 6 7 8 17 4 21 -4 4 -12 -1 -17 -11 -6 -9
-15 -17 -20 -17 -6 0 -7 6 -3 13 4 6 -1 5 -12 -4 -10 -9 -35 -17 -54 -17 -19
0 -29 2 -22 5 6 3 12 12 12 20 0 13 -2 14 -17 2 -16 -13 -17 -12 -4 4 8 10 21
15 29 12 21 -8 35 4 23 19 -8 10 -5 18 12 32 22 19 22 19 4 -2 -18 -21 -14
-34 10 -34 8 0 11 5 8 11 -4 6 0 9 11 7 14 -2 18 2 16 15 -3 17 2 18 45 10 26
-4 309 -7 628 -6 l580 3 130 31 c72 17 135 37 141 45 6 8 20 11 34 7 16 -4 21
-3 16 5 -4 7 2 13 16 16 13 3 37 8 53 11 17 4 47 9 69 12 28 4 35 8 25 15 -12
7 -11 8 1 6 16 -2 136 36 160 52 12 8 12 10 -5 10 -15 0 -17 2 -6 9 10 6 10
10 1 16 -9 6 -9 9 1 16 17 10 39 -8 32 -27 -3 -9 1 -14 12 -14 9 0 13 5 10 10
-3 6 -1 10 6 10 7 0 5 8 -6 20 -11 12 -13 20 -6 20 7 0 9 5 5 11 -4 7 -1 10 7
7 8 -3 13 -12 11 -21 -2 -13 1 -14 22 -4 17 8 21 15 15 23 -6 8 -5 14 5 17 9
4 18 2 21 -3 4 -6 11 -10 16 -10 6 0 8 4 5 9 -3 5 1 12 10 15 22 8 22 8 26
-16 2 -12 10 -23 18 -25 12 -4 13 -3 1 5 -11 8 -9 11 9 17 l23 7 -24 14 c-13
7 -18 13 -11 14 7 0 23 -5 35 -11 15 -9 22 -9 25 -1 2 6 10 8 18 5 13 -5 13
-7 2 -14 -10 -7 -9 -9 4 -9 9 0 20 5 24 11 3 6 18 8 33 5 l26 -6 -25 14 c-14
9 -33 13 -43 10 -19 -6 -20 15 -2 28 14 11 27 10 20 -1 -3 -5 -1 -12 4 -15 5
-3 12 1 15 10 4 11 10 12 22 6 12 -6 22 -4 34 7 48 45 92 63 153 62 9 0 17 5
17 10 0 5 6 9 13 8 20 -4 67 12 67 23 0 5 9 7 19 3 13 -4 23 0 30 12 9 16 12
16 22 3 9 -12 10 -11 6 8 -4 16 0 22 11 23 12 0 10 3 -6 9 -12 5 -30 7 -40 3
-10 -3 -7 2 7 13 23 17 24 18 5 26 -15 6 -13 7 7 3 31 -6 43 3 28 22 -9 10 -8
13 5 13 9 0 16 -7 16 -16 0 -14 3 -14 15 -4 11 9 12 16 5 25 -13 16 16 75 37
75 13 0 13 -3 3 -15 -7 -8 -9 -15 -5 -15 4 0 2 -6 -4 -14 -9 -11 -8 -15 5 -20
9 -4 19 -4 22 -1 3 3 0 5 -6 5 -14 0 4 37 28 57 8 7 11 13 6 13 -5 0 -2 8 5
17 12 15 12 16 -3 10 -10 -3 -20 -2 -23 3 -3 4 0 10 6 12 16 5 18 56 3 62 -16
6 -19 36 -4 36 6 0 10 -7 10 -15 0 -9 7 -18 15 -21 8 -4 12 -10 9 -15 -3 -5 0
-9 5 -9 6 0 11 7 11 16 0 9 8 18 19 21 10 2 24 16 31 31 6 14 20 32 31 40 15
10 17 17 9 32 -13 24 -13 33 0 25 6 -3 11 2 11 12 2 24 2 25 -6 46 -6 13 -2
17 15 17 11 0 19 4 16 9 -9 13 4 42 16 35 5 -3 15 2 23 12 13 18 9 44 -8 55
-5 3 9 13 31 22 21 8 52 27 69 41 17 14 36 26 41 26 6 0 15 6 19 14 4 7 40 35
78 61 157 107 345 259 395 317 20 23 46 42 70 48 20 5 54 23 75 40 20 16 45
32 55 35 10 3 24 22 30 41 7 19 23 42 36 52 14 9 50 53 81 97 31 44 71 98 89
120 43 54 164 236 164 247 0 5 20 53 45 105 44 92 46 102 55 222 4 69 13 140
17 156 5 17 6 41 2 55 -5 17 -7 19 -8 7 -1 -23 -31 -81 -38 -74 -2 3 -9 25
-14 49 -5 24 -28 100 -51 170 -23 71 -39 130 -36 133 14 14 45 -15 90 -84 28
-42 48 -67 45 -56 -3 11 -9 56 -13 100 -4 44 -9 74 -11 68 -9 -25 -22 -12 -41
40 -11 28 -41 95 -66 147 -26 52 -42 96 -37 98 5 2 -2 24 -16 50 -36 65 -127
201 -120 180 11 -31 -1 -20 -38 35 -19 28 -55 79 -80 112 -48 63 -44 87 7 39
43 -41 106 -137 100 -153 -3 -8 0 -11 7 -7 6 4 11 11 11 16 0 18 -113 183
-176 257 -63 74 -74 93 -54 93 6 0 2 12 -7 27 -12 19 -14 24 -4 19 8 -5 0 11
-18 35 -30 43 -83 114 -98 134 -5 6 -26 36 -47 68 -22 31 -44 57 -50 57 -13 0
-86 81 -86 96 0 7 -7 14 -15 18 -8 3 -15 10 -15 17 0 6 -13 28 -30 49 -16 21
-30 39 -30 41 0 2 -47 53 -105 113 -58 60 -105 113 -105 118 0 4 -5 8 -11 8
-6 0 -38 29 -71 65 -33 35 -64 62 -68 60 -5 -3 -15 2 -23 10 -18 17 -31 20
-22 5 3 -5 4 -10 1 -10 -3 0 -12 14 -21 30 -11 21 -23 30 -40 30 -13 0 -33 10
-45 22 -12 13 -20 16 -20 9 0 -7 -16 1 -35 18 -20 17 -39 31 -43 31 -5 0 -23
14 -40 31 -24 24 -32 27 -32 15 0 -10 -4 -14 -10 -11 -5 3 -10 15 -10 26 0 11
-10 23 -24 28 -13 5 -37 27 -55 48 -25 30 -31 34 -31 18 0 -18 -2 -18 -21 5
-11 14 -34 45 -50 69 -16 25 -29 41 -29 35 -1 -5 -9 1 -18 12 -10 12 -28 25
-41 29 -14 4 -20 12 -17 21 3 9 1 12 -4 9 -10 -6 -60 41 -60 56 0 5 -4 9 -10
9 -5 0 -7 -7 -4 -15 12 -31 -14 -14 -52 34 -21 27 -49 55 -61 62 -13 7 -23 18
-23 24 0 14 -48 38 -59 30 -5 -2 -16 4 -26 15 -32 36 -34 21 -4 -40 16 -33 29
-74 29 -91 0 -29 -2 -31 -27 -24 -16 3 -62 28 -103 54 -79 50 -267 140 -308
147 -19 4 -97 38 -110 49 -3 3 95 152 130 198 54 68 22 38 -43 -40 -34 -43
-121 -145 -193 -228 -169 -196 -181 -213 -65 -91 90 93 98 99 115 86 26 -21
54 -52 54 -60 0 -4 31 -24 68 -43 l69 -36 18 -66 c9 -36 14 -76 11 -90 l-7
-26 -31 23 c-20 14 -30 17 -26 7 77 -187 96 -269 64 -269 -7 0 -87 38 -177 83
-90 46 -182 87 -205 90 -22 4 -68 24 -102 46 l-61 40 -39 -29 c-36 -26 -71
-63 -45 -47 6 4 30 -8 54 -25 24 -18 91 -57 149 -88 l105 -55 0 -49 c0 -27 -5
-51 -11 -53 -15 -5 -78 41 -297 218 -22 18 -42 27 -50 23 -6 -4 -102 -78 -212
-164 -110 -86 -420 -327 -690 -535 -269 -208 -529 -410 -577 -447 -95 -76
-461 -467 -388 -415 48 34 59 32 73 -8 2 -5 16 1 32 13 15 12 31 22 36 22 4 0
27 -39 51 -87 23 -49 64 -121 90 -162 49 -75 58 -101 36 -101 -7 0 -26 27 -42
59 -16 32 -37 69 -47 82 l-18 24 6 -22 c7 -29 -8 -29 -33 -2 -10 11 -26 25
-36 30 -16 9 -16 7 -2 -28 9 -21 33 -74 54 -118 52 -111 53 -115 29 -115 -11
0 -17 4 -14 10 8 12 -23 72 -34 66 -4 -3 -41 25 -82 62 -137 125 -200 175
-208 166 -4 -5 -32 -36 -62 -68 -30 -33 -47 -57 -38 -53 11 4 20 -3 28 -20
l12 -26 29 28 c16 15 35 25 42 23 7 -3 31 -32 53 -64 21 -33 58 -81 80 -109
23 -27 50 -62 60 -77 17 -27 17 -28 -4 -28 -11 0 -21 5 -21 10 0 13 -75 116
-92 126 -7 5 -19 9 -25 10 -7 1 -30 16 -52 33 -21 17 -42 31 -45 31 -10 0 36
-86 98 -185 31 -49 56 -95 56 -102 0 -27 -19 -12 -41 32 -12 24 -26 42 -30 40
-8 -6 -36 17 -118 95 -30 28 -66 60 -81 70 l-27 19 -57 -69 -57 -69 43 -76
c24 -41 52 -78 63 -81 22 -8 105 -83 105 -96 0 -18 -30 -6 -49 18 -12 15 -21
23 -21 19 0 -5 6 -16 14 -24 7 -9 17 -26 20 -38 6 -18 4 -22 -8 -17 -8 3 -18
14 -21 25 -4 10 -25 38 -49 61 -23 24 -63 66 -88 95 l-46 52 -46 -54 -46 -53
52 -87 c28 -48 71 -109 96 -136 24 -27 41 -53 37 -59 -4 -6 -54 38 -116 102
l-109 112 -32 -31 -32 -32 23 -25 c13 -13 33 -27 46 -30 13 -3 37 -24 52 -45
15 -22 50 -64 77 -95 27 -31 47 -59 44 -61 -2 -3 -29 19 -59 48 -89 86 -185
167 -198 167 -6 0 -11 -4 -11 -10 0 -16 50 -102 100 -171 59 -82 74 -109 64
-117 -4 -4 -8 -2 -10 3 -2 6 -49 56 -103 113 l-98 102 -28 -42 c-22 -33 -25
-45 -16 -57 6 -9 20 -32 30 -51 11 -19 49 -78 85 -130 37 -52 62 -96 56 -98
-6 -2 -6 -10 0 -23 15 -27 -2 -24 -30 6 -19 21 -21 25 -7 25 27 0 20 14 -21
48 -22 16 -65 62 -98 101 l-59 71 -21 -24 c-35 -40 -164 -251 -164 -269 0 -9
12 -38 26 -64 l26 -48 -4 47 c-1 25 0 44 3 42 4 -2 9 14 13 36 5 31 10 38 22
33 15 -5 16 -18 8 -107 -5 -56 -9 -137 -9 -181 0 -78 1 -82 39 -133 21 -29 54
-65 73 -79 20 -15 30 -29 24 -31 -21 -7 9 -32 40 -32 20 0 53 -21 116 -72 48
-40 90 -75 93 -78 3 -3 27 -25 54 -49 l49 -44 -34 7 c-52 12 -58 12 -59 2 -1
-5 26 -24 60 -42 81 -42 83 -46 25 -43 -28 1 -57 -1 -66 -5 -11 -5 -31 7 -65
37 -49 43 -89 53 -77 19 6 -16 5 -15 -14 1 -41 36 -33 15 22 -55 88 -114 237
-279 270 -300 l30 -19 -53 5 c-49 4 -54 3 -62 -20 -5 -13 -14 -24 -20 -24 -15
0 -12 -40 3 -41 6 0 2 -5 -10 -11 -18 -9 -21 -16 -16 -41 4 -22 3 -28 -6 -23
-6 4 -8 13 -5 19 5 9 4 9 -6 0 -20 -18 -70 10 -63 36 2 10 0 22 -6 25 -7 5 -8
1 -4 -9 3 -10 0 -21 -7 -25 -9 -6 -23 3 -43 28 -18 22 -27 29 -24 17 5 -15 2
-13 -16 8 -12 15 -28 27 -34 27 -14 0 -73 79 -73 98 0 12 3 12 18 1 9 -7 7 -2
-5 12 -13 14 -23 30 -23 36 0 6 -8 17 -17 24 -11 10 -14 10 -9 2 4 -7 3 -13
-3 -13 -5 0 -19 16 -31 35 -12 19 -24 35 -26 35 -8 0 18 -44 39 -67 11 -13 17
-23 12 -23 -4 0 -2 -8 6 -17 21 -27 40 -63 44 -86 3 -11 12 -29 22 -39 10 -11
16 -21 13 -22 -3 -1 12 -22 33 -47 20 -25 37 -54 37 -63 0 -9 6 -19 14 -22 7
-3 22 -22 32 -42 29 -57 117 -167 122 -152 3 7 -5 20 -16 29 -12 9 -33 34 -47
56 l-26 40 31 -35 c17 -19 44 -48 59 -65 27 -28 33 -63 8 -48 -7 3 -3 -5 9
-18 14 -16 20 -35 19 -59 -3 -50 -4 -52 -16 -44 -6 3 -15 1 -20 -7 -6 -10 -11
-5 -20 16 -6 17 -13 24 -16 17 -3 -6 -10 -10 -16 -6 -7 3 -4 -1 6 -9 22 -19
22 -26 -2 -20 -17 4 -30 21 -31 38 0 12 -26 33 -33 28 -5 -3 -24 9 -42 27
l-34 33 5 -26 c2 -15 2 -27 0 -27 -2 0 -19 19 -36 43 -18 23 -30 33 -26 23 5
-16 4 -17 -9 -6 -8 7 -15 18 -15 26 0 7 -9 18 -19 24 -27 14 -31 13 -25 -7 5
-15 3 -15 -11 2 -9 11 -21 19 -26 17 -6 -1 -8 1 -5 6 7 11 -11 37 -25 37 -7 0
-14 11 -16 24 -4 30 -13 41 -13 18 0 -9 -5 -17 -11 -17 -5 0 -7 -6 -4 -12 4
-7 -5 1 -19 17 -14 17 -32 37 -39 46 -8 9 -17 23 -20 30 -4 10 -6 10 -6 2 -2
-30 -21 -10 -21 21 0 19 -4 38 -10 41 -6 3 -7 -1 -4 -9 4 -11 0 -16 -10 -16
-9 0 -16 7 -16 16 0 9 -6 14 -12 11 -7 -2 -28 11 -46 29 -18 18 -46 38 -62 46
-23 10 -28 17 -24 32 5 14 3 18 -9 13 -10 -4 -18 1 -22 14 -4 10 -16 24 -27
30 -21 11 -21 11 0 -19 12 -16 22 -33 22 -37 0 -12 -27 20 -43 52 -9 17 -23
33 -32 36 -8 4 -15 11 -15 18 0 6 6 9 14 6 21 -8 28 21 8 32 -15 9 -15 13 -3
33 13 21 13 22 -1 10 -13 -10 -17 -10 -21 0 -4 10 -6 10 -6 1 -2 -21 -19 -15
-27 10 -5 12 -7 26 -6 30 1 4 -2 16 -7 26 -7 12 -6 22 2 30 9 10 8 11 -7 5
-13 -5 -17 -4 -12 4 3 6 -1 15 -10 20 -11 6 -13 11 -5 16 6 4 11 1 11 -6 0 -8
5 -6 11 5 6 10 8 21 5 24 -3 4 -6 1 -6 -7 0 -10 -3 -10 -15 0 -16 13 -21 35
-6 25 5 -3 12 -1 16 5 3 5 2 10 -4 10 -6 0 -7 15 -4 35 4 28 2 35 -8 33 -9 -2
-15 8 -17 27 -2 23 0 27 7 15 9 -13 11 -13 11 2 0 9 -5 20 -10 23 -6 4 -7 11
-4 17 5 7 1 9 -9 5 -20 -7 -23 8 -4 17 9 5 9 7 -1 12 -10 5 -10 9 -1 20 6 7 9
20 6 28 -5 12 -1 13 21 6 25 -9 25 -9 8 4 -10 8 -15 19 -11 25 3 6 1 11 -4 11
-6 0 -11 6 -11 14 0 8 -4 16 -10 18 -6 2 -6 9 0 18 7 12 11 10 18 -10 7 -18
11 -21 14 -10 3 8 10 29 15 47 8 22 7 35 0 42 -11 11 -10 12 16 15 6 1 11 10
10 19 0 12 4 16 13 13 17 -7 28 10 12 18 -7 4 -3 4 9 2 23 -4 40 8 25 18 -12
7 -6 64 8 81 7 8 9 15 4 15 -4 0 -3 5 4 12 7 7 12 17 12 22 0 6 -7 3 -15 -7
-9 -13 -18 -16 -28 -10 -13 7 -13 10 1 23 9 8 19 14 22 13 3 -1 8 7 12 18 4
11 3 19 -3 19 -6 0 -7 5 -4 10 3 6 16 8 29 4 31 -7 44 12 43 64 0 28 6 50 18
64 12 15 14 23 7 26 -18 6 -14 26 8 40 13 8 20 8 20 1 0 -5 5 -7 11 -3 6 3 15
1 19 -7 5 -8 7 4 5 28 -2 31 0 40 10 37 17 -7 31 16 15 26 -9 5 -9 9 -1 14 6
4 16 4 21 1 6 -3 10 3 10 14 0 10 12 29 28 40 23 17 25 22 12 31 -13 9 -13 12
3 21 9 6 15 14 12 20 -3 5 1 6 9 3 11 -4 16 0 16 10 0 9 5 16 10 16 6 0 10 5
10 10 0 6 -7 10 -15 10 -8 0 -15 5 -15 10 0 6 -5 10 -11 10 -6 0 -9 -6 -6 -14
3 -8 -1 -20 -9 -26 -9 -8 -14 -9 -14 -2 0 6 6 13 13 15 9 4 9 6 0 6 -19 1 -3
31 17 31 10 0 21 7 24 16 3 9 12 14 20 11 14 -6 16 9 3 29 -4 7 0 17 8 24 12
10 15 9 15 -8 0 -28 27 -19 36 11 8 28 44 67 61 67 7 0 13 5 13 10 0 6 -4 10
-10 10 -6 0 -6 9 0 24 5 13 6 27 3 30 -3 3 5 15 18 26 19 16 21 21 10 29 -9 6
-11 16 -6 27 6 18 8 17 16 -4 5 -12 15 -25 23 -28 9 -3 12 -12 8 -22 -5 -15
-4 -15 12 -3 15 13 16 15 2 23 -23 13 -20 44 5 62 13 9 19 21 16 30 -4 9 4 23
18 34 13 11 22 21 20 24 -3 3 5 13 17 24 l23 19 -18 -22 c-18 -21 -18 -21 2
-28 12 -3 25 -4 30 -1 5 4 12 0 15 -6 3 -7 5 -2 5 12 -2 56 1 75 10 61 5 -8 7
-20 4 -28 -3 -8 2 -13 16 -13 12 0 21 -4 21 -10 0 -5 5 -10 11 -10 8 0 7 5 -2
16 -11 14 -11 18 4 29 25 18 21 24 -13 19 -25 -4 -30 -2 -30 16 0 17 3 19 19
10 26 -13 31 -13 31 5 0 7 8 19 18 25 14 9 13 10 -7 4 l-24 -6 22 31 c12 17
27 31 33 31 6 0 8 10 4 24 -5 19 -1 26 14 31 11 3 20 11 20 16 0 5 6 9 13 9 6
0 25 14 40 30 16 17 34 30 40 30 6 0 19 7 29 17 28 25 22 -4 -7 -33 -25 -25
-32 -44 -16 -44 5 0 11 9 14 20 3 11 12 20 21 20 9 0 16 4 16 9 0 5 8 17 18
27 9 10 17 20 17 23 1 3 7 17 14 30 10 18 19 22 42 19 26 -4 40 7 43 35 1 4 7
12 15 16 7 5 10 14 7 20 -4 6 -3 11 3 11 5 0 13 -5 16 -10 5 -8 11 -7 21 1 7
6 12 14 10 18 -3 4 0 13 5 21 8 13 10 13 19 0 8 -13 10 -13 10 1 0 9 9 24 20
34 19 17 19 19 4 37 -15 16 -15 18 -1 18 8 0 23 7 32 16 15 15 17 15 31 -2 8
-11 14 -14 13 -9 -1 6 3 21 9 35 6 14 11 19 11 11 1 -11 4 -11 16 -1 9 7 12
16 8 19 -11 8 -13 41 -2 41 5 0 9 -5 9 -11 0 -6 6 -9 13 -6 6 2 11 14 9 26 -3
19 0 22 17 16 15 -4 21 -2 19 7 -2 7 2 12 9 11 7 -2 17 6 23 17 9 16 8 20 -5
20 -17 0 -20 16 -5 25 6 3 17 -1 26 -9 21 -21 27 -20 21 4 -3 14 1 25 13 32
17 11 17 13 3 23 -14 10 -12 15 16 34 l31 22 1 -28 1 -28 13 30 c7 17 23 39
34 49 15 14 18 23 11 31 -8 9 -6 18 5 29 21 21 42 21 25 1 -23 -28 -2 -27 35
1 20 15 34 33 31 40 -3 7 2 18 9 24 8 7 13 16 10 20 -6 10 45 53 53 45 4 -4
-4 -15 -17 -26 -13 -11 -22 -22 -19 -25 3 -2 19 9 37 25 22 20 29 34 24 47 -4
12 -3 15 6 10 8 -5 14 -1 18 13 3 11 9 18 14 15 5 -3 12 3 16 13 4 10 10 20
13 23 4 3 11 16 15 30 7 23 6 24 -11 11 -10 -8 -1 2 21 22 41 36 61 42 31 8
-10 -11 -15 -25 -11 -30 8 -13 55 40 55 61 0 8 16 23 35 34 20 10 41 31 48 46
6 16 17 28 24 28 6 0 10 9 8 20 -3 17 -1 19 15 10 25 -13 30 -13 30 4 0 8 8
17 17 20 15 6 15 9 3 17 -13 9 -12 10 2 6 25 -8 42 17 28 42 -8 17 -8 20 4 15
12 -5 14 1 10 28 -3 18 -5 40 -4 48 1 8 2 34 2 58 0 23 4 42 9 42 5 0 9 -8 9
-18 0 -11 9 -29 20 -42 11 -13 20 -31 20 -41 0 -10 5 -21 10 -24 6 -3 10 5 10
19 0 14 -5 28 -10 31 -12 8 -3 47 14 57 8 5 8 13 -2 28 -13 22 -3 27 16 8 9
-9 12 -7 12 10 0 16 -9 27 -31 36 -19 8 -27 16 -20 20 6 4 20 2 32 -4 27 -15
38 -4 14 14 -20 15 -12 38 10 29 9 -3 15 1 15 11 0 9 -4 16 -10 16 -39 0 -70
113 -35 127 21 7 32 -4 17 -19 -18 -18 -15 -68 3 -68 10 0 15 10 15 28 0 15 5
33 11 39 7 7 1 20 -20 44 -17 18 -34 42 -37 51 -3 10 -12 18 -20 18 -20 0 -17
17 4 22 10 3 18 15 19 26 2 30 -11 28 -25 -3 -15 -32 -36 -34 -26 -2 4 12 11
25 17 28 5 4 6 12 2 19 -4 7 -3 15 2 19 5 3 16 17 25 30 13 18 14 28 6 45 -25
48 -26 54 -15 65 9 9 8 11 -7 5 -14 -5 -17 -4 -12 5 5 7 0 21 -9 31 -15 16
-15 22 -5 35 10 12 10 15 -3 15 -13 0 -16 9 -13 48 2 26 7 54 10 63 4 9 0 21
-8 29 -18 14 -28 0 -25 -35 5 -50 1 -55 -25 -32 -25 23 -43 81 -28 91 5 3 9
-8 9 -25 0 -16 5 -35 11 -41 9 -9 12 -6 12 12 0 13 11 34 24 45 23 20 30 63
12 77 -5 3 -9 27 -9 52 1 25 0 46 -2 46 -1 0 -10 -16 -19 -35 -17 -35 -36 -47
-36 -21 0 7 7 19 15 26 8 7 15 19 15 26 0 8 9 14 20 14 23 0 28 31 7 49 -10 8
-17 7 -25 -1 -16 -16 -15 2 1 23 7 9 18 14 25 12 7 -3 12 4 12 15 0 11 6 22
13 25 6 2 9 8 5 12 -8 8 -29 -12 -62 -58 l-16 -22 -17 25 c-10 13 -25 32 -34
41 -14 14 -14 19 -2 34 12 17 13 17 13 2 0 -9 6 -17 14 -17 16 0 27 40 23 87
-2 19 2 34 10 37 17 7 26 -11 19 -38 -4 -18 -2 -22 14 -21 25 2 26 3 33 41 5
28 4 32 -19 32 -14 0 -27 2 -29 4 -7 7 27 91 46 113 9 11 14 26 12 33 -3 6 0
12 6 12 6 0 -2 12 -17 28 -31 31 -39 83 -16 102 11 10 12 16 3 26 -13 16 -33
19 -24 4 4 -6 0 -24 -9 -41 -15 -29 -12 -58 7 -70 12 -8 18 -99 7 -99 -5 0
-17 -17 -26 -37 -26 -53 -29 -23 -5 33 l21 47 -21 46 c-12 25 -28 58 -35 73
-15 28 -5 45 19 32 6 -4 5 1 -4 12 -22 27 -31 54 -16 51 7 -1 12 5 13 13 0 8
3 22 7 30 16 43 17 71 3 76 -21 8 -41 73 -27 87 8 8 11 6 11 -6 0 -9 7 -17 16
-17 11 0 14 -6 9 -21 -5 -14 0 -28 16 -45 19 -21 21 -28 11 -42 -24 -33 -23
-41 5 -76 32 -41 43 -45 43 -16 0 11 -4 20 -9 20 -19 0 -23 58 -6 84 17 26 15
56 -4 56 -6 0 -8 -7 -5 -15 4 -8 1 -15 -6 -15 -8 0 -9 10 -4 33 4 17 8 53 8
79 2 64 -20 72 -29 11 -4 -28 -10 -42 -16 -36 -12 12 -2 62 16 87 14 18 15 18
34 -5 17 -20 20 -21 21 -6 0 9 -9 25 -20 34 -11 10 -20 24 -20 31 0 8 -6 12
-15 9 -13 -6 -55 35 -55 54 0 12 33 -1 48 -19 11 -14 12 -14 12 0 0 22 -29 50
-46 44 -19 -7 -62 80 -46 96 8 8 14 5 22 -13 21 -47 40 -74 50 -71 5 1 10 -3
10 -9 0 -6 7 -9 15 -5 16 6 40 -28 30 -43 -7 -13 4 -39 21 -45 11 -4 14 5 14
39 0 25 -3 44 -7 43 -12 -4 -91 79 -98 102 -3 11 -10 20 -15 20 -5 0 -7 7 -4
15 4 8 1 15 -5 15 -15 0 -14 27 1 32 9 3 8 15 -5 48 -16 41 -16 44 1 56 15 11
17 9 20 -19 1 -18 8 -42 14 -54 6 -13 8 -26 5 -30 -4 -3 -2 -12 4 -19 6 -8 11
-29 11 -49 0 -19 4 -38 9 -41 5 -3 9 5 9 16 0 16 5 20 15 16 18 -6 20 5 3 22
-9 9 -8 13 5 18 12 4 14 11 7 30 -6 14 -9 28 -8 32 4 15 -24 122 -33 127 -5 4
-9 17 -9 31 0 15 4 23 10 19 7 -4 9 2 4 19 -5 21 -3 25 9 21 9 -4 16 1 20 14
3 12 11 21 17 21 7 0 10 -8 8 -18 -3 -11 1 -30 9 -43 13 -24 13 -23 11 11 -3
29 0 35 15 33 13 -1 17 3 12 15 -4 10 -10 26 -13 37 -3 11 -12 26 -19 33 -15
16 -17 68 -3 77 6 3 10 -2 10 -13 0 -10 9 -36 21 -58 11 -21 17 -30 14 -19
-14 43 -17 75 -8 75 6 0 10 28 9 65 -1 79 16 104 37 54 13 -33 14 -33 21 -11
5 16 3 29 -9 42 -9 10 -14 23 -11 29 4 5 1 21 -5 35 -10 22 -8 29 14 55 14 18
31 55 37 86 8 37 18 59 32 66 17 9 19 17 13 55 -6 40 -4 44 15 44 22 0 79 -35
93 -58 5 -7 12 -10 16 -8 4 3 25 -13 46 -34 52 -53 75 -53 75 0 0 30 -5 42
-17 47 -27 10 -47 33 -49 57 -2 11 0 16 2 9 4 -8 13 -9 30 -3 21 8 24 7 24
-13 0 -17 2 -19 10 -7 5 8 12 11 16 8 12 -12 44 12 44 33 0 11 5 30 12 42 24
44 19 81 -18 122 -25 26 -32 40 -24 45 7 4 9 13 5 20 -5 8 -1 11 10 8 10 -1
22 -14 26 -27 8 -19 6 -22 -7 -17 -8 3 -2 -8 15 -24 17 -17 33 -46 37 -65 7
-40 24 -57 44 -45 11 7 11 12 2 23 -13 16 -13 69 1 60 5 -3 6 -11 3 -19 -3 -8
-1 -14 3 -14 5 0 11 5 13 11 2 7 18 -6 36 -28 17 -22 41 -43 52 -46 17 -4 19
-3 9 9 -17 20 -69 134 -62 134 4 0 -4 11 -17 25 -13 14 -18 25 -12 25 25 0 5
45 -37 81 -113 100 -189 148 -306 197 -66 27 -131 53 -145 57 -14 4 -49 28
-79 52 -30 24 -67 51 -83 59 -25 13 -187 46 -283 58 -19 2 -76 -14 -157 -44z
m1046 -476 c5 -14 4 -15 -9 -4 -17 14 -19 20 -6 20 5 0 12 -7 15 -16z m-19
-24 c10 -16 -12 -12 -29 6 -9 8 -16 18 -16 20 0 7 38 -15 45 -26z m-390 -210
c3 -5 1 -10 -4 -10 -6 0 -11 5 -11 10 0 6 2 10 4 10 3 0 8 -4 11 -10z m-141
-655 c3 -8 1 -15 -4 -15 -6 0 -10 7 -10 15 0 8 2 15 4 15 2 0 6 -7 10 -15z
m-134 -76 c0 -6 -4 -7 -10 -4 -5 3 -10 11 -10 16 0 6 5 7 10 4 6 -3 10 -11 10
-16z m-20 -189 c0 -5 -2 -10 -4 -10 -3 0 -8 5 -11 10 -3 6 -1 10 4 10 6 0 11
-4 11 -10z m-74 -68 c6 -4 13 -15 17 -25 6 -16 5 -16 -18 -1 -14 9 -25 20 -25
25 0 11 11 11 26 1z m4 -142 c0 -5 -2 -10 -4 -10 -3 0 -8 5 -11 10 -3 6 -1 10
4 10 6 0 11 -4 11 -10z m40 -30 c0 -5 -2 -10 -4 -10 -3 0 -8 5 -11 10 -3 6 -1
10 4 10 6 0 11 -4 11 -10z m54 -60 c3 -11 9 -29 12 -40 9 -33 -13 -23 -25 11
-13 39 -14 49 -2 49 5 0 12 -9 15 -20z m-46 -212 c-1 -7 2 -24 6 -37 6 -17 4
-26 -7 -33 -12 -6 -13 -15 -6 -43 10 -36 5 -60 -11 -50 -4 3 -6 14 -3 25 3 11
0 26 -6 34 -9 10 -8 16 4 26 11 9 13 23 9 51 -5 27 -3 39 5 39 7 0 11 -6 9
-12z m-86 -150 c-9 -9 -12 -7 -12 12 0 19 3 21 12 12 9 -9 9 -15 0 -24z m58
-34 c0 -8 -4 -12 -10 -9 -5 3 -10 10 -10 16 0 5 5 9 10 9 6 0 10 -7 10 -16z
m70 -84 c0 -3 -4 -11 -9 -19 -7 -11 -11 -10 -20 7 -17 32 -14 44 9 30 11 -7
20 -15 20 -18z m-17 -72 c5 -18 -3 -48 -14 -48 -8 0 -29 41 -29 56 0 10 39 3
43 -8z m-77 -142 c-4 -23 -3 -35 6 -38 8 -3 6 -7 -5 -11 -22 -8 -33 32 -17 62
16 31 23 25 16 -13z m91 2 c-3 -7 -5 -2 -5 12 0 14 2 19 5 13 2 -7 2 -19 0
-25z m-2 -59 c-9 -14 -34 2 -28 17 4 11 9 12 19 3 8 -6 11 -15 9 -20z m-73
-131 c-7 -7 -12 -8 -12 -2 0 14 12 26 19 19 2 -3 -1 -11 -7 -17z m65 -80 c-3
-8 -6 -5 -6 6 -1 11 2 17 5 13 3 -3 4 -12 1 -19z m-25 -38 c-6 -41 -21 -38
-19 4 1 19 7 32 13 29 6 -2 8 -17 6 -33z m68 6 c0 -3 -4 -8 -10 -11 -5 -3 -10
-1 -10 4 0 6 5 11 10 11 6 0 10 -2 10 -4z m-140 -30 c0 -3 -4 -8 -10 -11 -5
-3 -10 -1 -10 4 0 6 5 11 10 11 6 0 10 -2 10 -4z m136 -103 c-8 -8 -12 -3 -21
27 l-7 25 17 -23 c9 -13 14 -26 11 -29z m-39 5 c-3 -8 -6 -5 -6 6 -1 11 2 17
5 13 3 -3 4 -12 1 -19z m77 7 c-4 -8 -8 -15 -10 -15 -2 0 -4 7 -4 15 0 8 4 15
10 15 5 0 7 -7 4 -15z m-114 -106 c0 -6 -4 -7 -10 -4 -5 3 -10 11 -10 16 0 6
5 7 10 4 6 -3 10 -11 10 -16z m69 -72 c1 -5 -3 -5 -9 -2 -5 3 -10 16 -9 28 0
21 1 21 9 2 5 -11 9 -24 9 -28z m1611 8 c14 -7 72 -31 130 -54 149 -58 164
-69 190 -138 30 -79 38 -143 17 -143 -8 0 -52 27 -96 60 -44 33 -118 83 -163
111 -150 93 -181 128 -156 173 10 18 30 15 78 -9z m-1590 -35 c0 -5 -2 -10 -4
-10 -3 0 -8 5 -11 10 -3 6 -1 10 4 10 6 0 11 -4 11 -10z m30 -18 c0 -13 -12
-22 -22 -16 -10 6 -1 24 13 24 5 0 9 -4 9 -8z m-70 -32 c0 -5 -2 -10 -4 -10
-3 0 -8 5 -11 10 -3 6 -1 10 4 10 6 0 11 -4 11 -10z m63 -14 c3 -8 0 -21 -6
-30 -10 -14 -12 -12 -13 14 -1 31 10 40 19 16z m9 -68 c-7 -7 -12 -8 -12 -2 0
14 12 26 19 19 2 -3 -1 -11 -7 -17z m51 -16 c13 -27 12 -31 -11 -58 -16 -18
-23 -22 -19 -10 4 10 3 24 -3 31 -8 9 -8 15 0 20 5 3 10 1 10 -4 0 -6 5 -11
12 -11 6 0 4 8 -6 19 -10 11 -15 25 -11 30 9 16 12 14 28 -17z m-54 -119 c-13
-16 -25 -30 -26 -32 -2 -2 -3 0 -3 5 0 14 33 54 44 54 5 0 -1 -12 -15 -27z
m-1776 -35 c4 -10 7 -10 18 -1 10 10 16 9 31 -4 14 -13 20 -13 33 -3 12 10 18
10 31 -1 12 -10 20 -10 34 -2 13 9 29 8 61 -1 49 -15 49 -15 13 -51 l-25 -25
-8 22 c-7 20 -9 18 -15 -15 -4 -20 -11 -37 -17 -37 -6 0 -7 -5 -3 -12 6 -9 9
-9 12 0 2 7 9 12 15 12 6 0 0 -11 -13 -25 -21 -23 -24 -23 -36 -7 -7 9 -14 25
-14 35 0 9 -7 17 -16 17 -10 0 -14 -6 -10 -15 3 -9 0 -15 -8 -15 -8 0 -17 -7
-20 -15 -4 -12 -2 -14 11 -7 23 13 57 -16 41 -35 -8 -10 -8 -17 0 -25 20 -20
14 -34 -32 -82 -30 -33 -42 -53 -39 -66 4 -15 0 -20 -16 -20 -11 0 -21 -5 -21
-11 0 -6 -6 -17 -14 -24 -12 -12 -16 -12 -25 -1 -6 7 -8 16 -4 20 4 4 -10 6
-30 4 -26 -1 -43 4 -56 17 -20 21 -44 102 -31 107 4 2 2 50 -5 108 -13 112 -9
129 29 131 11 0 39 9 61 19 48 22 62 24 68 8z m378 -8 c22 6 37 6 43 0 6 -6
19 -10 29 -10 13 0 17 -5 13 -16 -3 -8 -1 -24 4 -35 6 -10 7 -19 3 -20 -4 -1
-26 -3 -48 -5 -22 -2 -41 -8 -43 -14 -2 -5 -10 -10 -17 -10 -7 0 -15 -7 -19
-15 -3 -8 -1 -15 3 -15 5 0 11 4 13 9 2 5 15 13 30 16 19 5 31 2 42 -12 9 -10
16 -22 15 -27 0 -5 5 -13 13 -17 9 -6 9 -9 1 -9 -6 0 -18 9 -26 21 -14 19 -18
19 -56 8 -23 -7 -46 -18 -52 -26 -6 -7 -15 -13 -19 -13 -12 0 1 48 16 61 11 9
11 13 -1 25 -18 18 -26 18 -19 -1 4 -10 0 -15 -14 -15 -19 0 -20 2 -6 30 14
27 13 31 -7 51 l-22 22 23 19 c21 17 25 17 45 4 18 -12 31 -13 56 -6z m1352
-28 c-3 -12 -9 -19 -14 -16 -5 3 -3 14 3 24 15 24 19 21 11 -8z m61 -9 c21
-26 11 -30 -18 -8 -10 7 -15 19 -11 25 4 6 8 10 9 8 0 -2 10 -13 20 -25z
m1070 -10 c4 -4 22 -6 40 -5 40 4 206 -52 333 -113 100 -47 106 -55 107 -140
1 -36 -1 -40 -22 -38 -12 2 -79 41 -148 88 -69 46 -163 103 -207 125 -89 44
-153 90 -126 90 9 0 19 -3 23 -7z m-1029 -22 c3 -5 1 -12 -5 -16 -5 -3 -10 1
-10 9 0 18 6 21 15 7z m-1311 -76 c-10 -8 -23 -14 -29 -14 -5 -1 1 8 15 19 14
10 27 17 29 14 3 -2 -4 -11 -15 -19z m-314 5 c0 -5 -4 -10 -10 -10 -5 0 -10 5
-10 10 0 6 5 10 10 10 6 0 10 -4 10 -10z m2575 -105 c42 -74 156 -375 158
-418 2 -39 0 -42 -21 -39 -22 3 -23 1 -16 -33 l7 -37 -34 7 c-19 4 -67 25
-108 46 -87 47 -199 93 -261 109 -48 13 -160 68 -160 80 0 18 15 15 63 -10 29
-16 106 -44 172 -63 66 -19 160 -49 208 -66 99 -35 106 -36 89 -19 -13 13
-228 89 -334 118 -63 17 -201 88 -196 100 2 3 62 60 133 127 72 66 150 141
174 166 l44 46 30 -37 c16 -20 39 -55 52 -77z m-2400 65 c3 -5 -1 -10 -10 -10
-9 0 -13 5 -10 10 3 6 8 10 10 10 2 0 7 -4 10 -10z m-201 -15 c-7 -17 -20 -20
-29 -6 -3 5 3 12 12 14 10 3 19 5 20 6 1 0 0 -6 -3 -14z m1642 -38 c-3 -48
-12 -70 -26 -62 -5 3 -5 16 0 31 6 14 10 36 10 50 0 13 4 24 9 24 5 0 8 -19 7
-43z m-1336 3 c8 -5 11 -12 8 -16 -11 -10 -60 5 -53 16 8 12 26 12 45 0z
m-181 -17 c-7 -8 -26 -21 -43 -30 -31 -16 -31 -15 -13 4 9 11 17 24 17 29 0 5
11 10 25 10 22 2 24 0 14 -13z m-153 -19 c-3 -9 -6 -18 -6 -20 0 -2 -7 -4 -15
-4 -18 0 -19 12 -3 28 17 17 31 15 24 -4z m404 6 c0 -5 -10 -10 -22 -10 -19 0
-20 2 -8 10 19 13 30 13 30 0z m-310 -50 c0 -5 -5 -10 -11 -10 -5 0 -7 5 -4
10 3 6 8 10 11 10 2 0 4 -4 4 -10z m275 -20 c7 -12 -2 -12 -30 0 -19 8 -19 9
2 9 12 1 25 -3 28 -9z m1257 -16 c-3 -17 -8 -22 -15 -15 -7 7 -6 15 3 26 17
20 18 19 12 -11z m-1522 1 c-7 -9 -15 -13 -17 -11 -7 7 7 26 19 26 6 0 6 -6
-2 -15z m160 -5 c0 -5 -5 -10 -11 -10 -5 0 -7 5 -4 10 3 6 8 10 11 10 2 0 4
-4 4 -10z m1424 -37 c4 -13 3 -23 -2 -23 -12 0 -30 42 -24 59 4 12 6 12 12 0
4 -8 11 -24 14 -36z m-1159 -4 c11 -17 -1 -21 -15 -4 -8 9 -8 15 -2 15 6 0 14
-5 17 -11z m130 -17 c-3 -3 -11 0 -18 7 -9 10 -8 11 6 5 10 -3 15 -9 12 -12z
m925 8 c0 -5 -4 -10 -10 -10 -5 0 -10 5 -10 10 0 6 5 10 10 10 6 0 10 -4 10
-10z m-1990 -16 c0 -8 -4 -12 -10 -9 -5 3 -10 10 -10 16 0 5 5 9 10 9 6 0 10
-7 10 -16z m305 6 c-3 -5 -11 -10 -16 -10 -6 0 -7 5 -4 10 3 6 11 10 16 10 6
0 7 -4 4 -10z m-82 -14 c10 -8 14 -17 9 -20 -11 -7 -72 15 -72 26 0 13 44 8
63 -6z m-209 -37 c28 23 61 -10 35 -36 -8 -8 -5 -17 10 -32 19 -19 20 -22 5
-28 -10 -4 -22 0 -29 10 -16 23 -32 21 -45 -4 -9 -15 -15 -18 -24 -10 -13 11
-26 5 -26 -11 0 -5 21 -7 48 -4 26 3 41 3 35 0 -21 -10 -15 -34 9 -34 17 0 19
-3 10 -12 -9 -9 -16 -8 -30 5 -24 22 -50 24 -32 2 10 -12 10 -15 -3 -15 -8 0
-18 6 -20 13 -3 6 -6 2 -6 -10 -1 -13 4 -23 9 -23 6 0 10 -4 10 -10 0 -5 -15
-10 -32 -10 -48 0 -78 -10 -78 -26 0 -8 7 -14 16 -14 9 0 23 -8 30 -17 20 -27
17 -35 -9 -19 -32 21 -67 16 -106 -15 -35 -29 -51 -29 -51 -2 0 13 3 13 15 3
12 -10 15 -9 15 4 0 9 -11 21 -25 26 -27 10 -35 50 -10 50 8 0 15 -4 15 -10 0
-5 5 -10 10 -10 6 0 3 11 -6 25 -20 31 -12 64 11 45 10 -9 15 -9 15 -1 0 6 13
11 29 11 31 0 44 12 56 50 12 37 33 52 78 54 10 0 17 8 17 19 0 11 4 15 12 11
8 -5 9 0 5 15 -4 18 -3 20 9 10 10 -9 17 -9 28 0z m511 1 c-3 -5 -12 -10 -18
-10 -7 0 -6 4 3 10 19 12 23 12 15 0z m1432 -22 c-3 -8 -6 -5 -6 6 -1 11 2 17
5 13 3 -3 4 -12 1 -19z m-1697 -12 c0 -2 -7 -7 -16 -10 -8 -3 -12 -2 -9 4 6
10 25 14 25 6z m340 -16 c0 -5 -5 -10 -11 -10 -5 0 -7 5 -4 10 3 6 8 10 11 10
2 0 4 -4 4 -10z m40 -10 c0 -5 -4 -10 -10 -10 -5 0 -10 5 -10 10 0 6 5 10 10
10 6 0 10 -4 10 -10z m1348 -15 c-3 -3 -9 2 -12 12 -6 14 -5 15 5 6 7 -7 10
-15 7 -18z m-1833 5 c3 -5 2 -10 -4 -10 -5 0 -13 5 -16 10 -3 6 -2 10 4 10 5
0 13 -4 16 -10z m605 6 c0 -2 -7 -6 -15 -10 -8 -3 -15 -1 -15 4 0 6 7 10 15
10 8 0 15 -2 15 -4z m1777 -79 c34 -57 160 -423 170 -492 10 -77 -21 -99 -77
-54 l-25 20 28 -7 c15 -3 27 -2 27 3 0 17 -24 33 -49 33 -15 0 -100 29 -191
63 -149 56 -226 97 -300 157 l-25 21 70 65 c56 52 314 239 335 243 3 1 20 -23
37 -52z m-2402 34 c7 -13 -60 -25 -82 -15 -14 6 -11 9 17 14 52 11 58 11 65 1z
m50 -21 c-3 -5 -14 -10 -23 -9 -14 0 -13 2 3 9 27 11 27 11 20 0z m1769 -54
c-6 -15 -24 -23 -24 -11 0 8 24 34 28 30 1 -1 0 -10 -4 -19z m-1857 8 c-3 -3
-12 -4 -19 -1 -8 3 -5 6 6 6 11 1 17 -2 13 -5z m1758 -104 c-3 -5 -11 -10 -16
-10 -6 0 -7 5 -4 10 3 6 11 10 16 10 6 0 7 -4 4 -10z m-2395 -35 c0 -13 6 -26
13 -28 7 -3 5 -6 -5 -6 -10 -1 -19 5 -19 12 -1 6 -3 22 -4 34 -1 12 2 20 6 17
5 -3 9 -16 9 -29z m-143 3 c-3 -8 -6 -5 -6 6 -1 11 2 17 5 13 3 -3 4 -12 1
-19z m-3 -44 c3 -8 2 -12 -4 -9 -6 3 -10 10 -10 16 0 14 7 11 14 -7z m446 -28
c0 -12 5 -27 11 -33 8 -8 8 -13 0 -17 -6 -4 -15 4 -21 19 -13 34 -13 68 0 60
6 -3 10 -16 10 -29z m5202 11 c61 -51 118 -137 90 -137 -8 0 -132 145 -132
155 0 11 16 4 42 -18z m-5213 -64 c30 -40 30 -60 -1 -29 -8 7 -22 13 -33 12
-20 -1 -34 18 -15 20 23 3 24 5 11 13 -7 5 -10 14 -6 21 4 6 8 10 9 8 1 -2 17
-22 35 -45z m111 23 c0 -10 -7 -12 -22 -8 -21 5 -21 6 -2 13 10 4 20 8 22 8 1
1 2 -5 2 -13z m5035 -46 c61 -42 115 -110 88 -110 -5 0 -42 31 -83 70 -78 72
-80 92 -5 40z m250 -15 c50 -52 125 -160 125 -181 0 -28 -20 -12 -56 44 -20
31 -59 82 -85 113 -27 31 -49 59 -49 63 0 17 25 2 65 -39z m-5340 15 c3 -5 1
-10 -4 -10 -6 0 -11 5 -11 10 0 6 2 10 4 10 3 0 8 -4 11 -10z m2216 -51 c8
-18 17 -30 21 -28 11 6 33 -30 57 -94 11 -32 41 -102 66 -156 48 -104 58 -155
29 -144 -14 5 -16 2 -10 -23 4 -16 11 -50 15 -76 7 -41 5 -48 -10 -53 -21 -7
-44 4 -45 23 -3 42 -4 43 -24 37 -13 -4 -36 2 -63 18 -23 14 -96 53 -162 87
-131 68 -183 100 -232 142 l-33 27 51 51 c75 75 279 217 315 219 6 1 17 -13
25 -30z m3009 -15 c14 -10 45 -36 70 -59 25 -24 57 -45 72 -49 23 -5 61 -40
178 -161 63 -65 173 -165 182 -165 18 0 302 -294 323 -336 11 -21 43 -68 71
-103 55 -69 82 -127 66 -143 -6 -6 -21 10 -43 43 -18 29 -59 84 -91 123 -32
39 -58 78 -58 86 0 17 -297 331 -309 327 -9 -2 -156 138 -240 229 -30 32 -64
66 -75 74 -20 14 -20 13 2 -14 23 -30 29 -56 12 -56 -5 0 -10 5 -10 11 0 5
-45 55 -101 110 -92 90 -113 125 -49 83z m-5380 -14 c4 0 10 -7 13 -14 4 -10
1 -13 -9 -9 -12 5 -13 1 -3 -21 8 -16 15 -22 19 -16 4 7 16 -6 27 -29 22 -45
16 -59 -18 -40 -19 10 -21 9 -16 -5 7 -19 3 -20 -25 -5 -15 8 -17 13 -8 19 9
6 10 15 2 36 -6 18 -11 22 -11 12 -1 -25 -21 -23 -21 2 0 10 7 23 16 28 14 8
14 13 4 32 -11 20 -10 22 5 17 9 -4 20 -7 25 -7z m5660 -52 c24 -24 54 -60 68
-81 14 -20 40 -45 58 -53 60 -28 190 -210 182 -252 -2 -11 -17 5 -41 44 -33
55 -157 212 -157 200 0 -3 9 -20 20 -38 21 -35 27 -63 10 -53 -5 3 -31 38 -56
78 -26 40 -69 97 -95 128 -27 31 -49 59 -49 63 0 15 21 3 60 -36z m-5756 7 c3
-8 1 -15 -4 -15 -6 0 -10 7 -10 15 0 8 2 15 4 15 2 0 6 -7 10 -15z m5343 -37
c24 -11 43 -24 43 -29 0 -5 30 -23 66 -41 59 -29 92 -54 131 -99 6 -8 39 -30
73 -49 34 -19 69 -47 78 -62 9 -15 40 -44 68 -63 29 -19 61 -46 71 -61 25 -37
61 -73 115 -114 44 -33 84 -93 74 -109 -3 -4 22 -31 56 -61 64 -56 95 -109 80
-136 -7 -13 -15 -8 -45 27 -20 24 -74 76 -121 114 -101 83 -117 122 -33 79
l32 -17 -25 28 c-14 14 -64 56 -112 92 -87 64 -99 78 -77 85 7 2 -27 33 -75
68 -47 35 -86 69 -86 75 0 5 -27 27 -60 49 -34 21 -65 47 -70 56 -5 10 -38 36
-73 58 -35 22 -70 46 -78 54 -8 7 -42 26 -77 43 -35 16 -66 34 -69 39 -9 14
65 -3 114 -26z m-5147 -68 c-8 -5 -22 -9 -30 -9 -10 0 -8 3 5 9 27 12 43 12
25 0z m-100 -32 c0 -13 -23 -5 -28 10 -2 7 2 10 12 6 9 -3 16 -11 16 -16z
m-80 -9 c0 -6 -4 -7 -10 -4 -5 3 -10 11 -10 16 0 6 5 7 10 4 6 -3 10 -11 10
-16z m38 -3 c7 -17 17 -23 30 -20 10 3 24 -2 31 -10 11 -13 11 -16 -2 -16 -9
0 -19 5 -22 10 -4 6 -10 8 -14 5 -5 -2 -15 3 -23 13 -23 26 -30 42 -20 42 5 0
14 -11 20 -24z m107 -14 c-6 -7 -35 18 -35 31 0 5 9 2 20 -8 11 -10 18 -20 15
-23z m1695 8 c-37 -28 -50 -24 -15 5 16 13 32 22 34 19 3 -3 -5 -14 -19 -24z
m-1822 -32 c2 -8 -4 -15 -13 -15 -8 0 -15 9 -15 20 0 22 23 18 28 -5z m67 -28
c3 -5 1 -10 -4 -10 -6 0 -11 5 -11 10 0 6 2 10 4 10 3 0 8 -4 11 -10z m1672
-36 c-3 -3 -12 -4 -19 -1 -8 3 -5 6 6 6 11 1 17 -2 13 -5z m218 -35 c14 -26
19 -28 32 -18 12 11 17 10 25 -5 9 -16 13 -15 43 14 l33 32 33 -63 c17 -35 49
-90 71 -122 22 -32 46 -74 54 -93 14 -32 13 -34 -6 -34 -11 0 -20 5 -20 12 0
6 -19 36 -42 67 -23 30 -57 85 -75 121 l-32 65 -1 -38 c0 -23 -4 -36 -10 -32
-15 9 25 -95 86 -224 30 -62 54 -122 54 -132 0 -31 -19 -22 -35 18 -20 47 -27
39 -12 -14 6 -23 8 -45 5 -49 -7 -6 -42 10 -37 17 9 16 -16 47 -41 52 -16 4
-65 29 -110 57 -44 28 -105 61 -135 75 -30 13 -77 45 -104 70 l-50 47 22 31
c21 29 212 177 228 177 5 0 16 -14 24 -31z m4131 -61 c79 -83 140 -176 131
-201 -2 -6 -23 17 -46 52 -24 35 -51 71 -60 80 -57 59 -101 112 -101 121 0 17
31 -4 76 -52z m-136 -103 c0 -5 -11 4 -25 20 -13 17 -24 35 -24 40 0 6 11 -3
24 -20 14 -16 25 -34 25 -40z m-4487 -105 c-3 -11 -12 -20 -20 -20 -11 0 -11
4 -3 20 6 11 15 20 19 20 5 0 7 -9 4 -20z m-53 -56 c0 -8 -5 -12 -10 -9 -6 4
-8 11 -5 16 9 14 15 11 15 -7z m552 -116 c14 -16 28 -39 31 -49 8 -32 -26 -22
-50 14 -13 17 -30 43 -40 56 -17 23 -17 24 7 17 14 -4 37 -21 52 -38z m4116
-107 c20 -10 67 -46 103 -80 54 -49 69 -69 78 -107 16 -63 1 -75 -34 -27 -16
21 -69 79 -117 130 -48 50 -88 94 -88 97 0 11 20 6 58 -13z m269 -93 c54 -56
113 -176 113 -230 0 -63 -14 -67 -35 -10 -10 26 -42 95 -71 154 -30 59 -54
110 -54 113 0 13 19 2 47 -27z m-5355 -10 c-7 -7 -12 -8 -12 -2 0 14 12 26 19
19 2 -3 -1 -11 -7 -17z m-64 -62 c-7 -8 -15 -12 -17 -11 -5 6 10 25 20 25 5 0
4 -6 -3 -14z m344 -94 c17 -26 55 -75 85 -109 29 -33 53 -66 53 -72 0 -20 -17
-12 -36 17 -31 48 -146 171 -166 178 -18 5 -19 7 -2 25 21 23 26 20 66 -39z
m4871 37 c40 -21 127 -100 142 -129 16 -30 21 -120 7 -120 -4 0 -16 14 -26 30
-10 17 -51 72 -92 123 -41 51 -74 95 -74 100 0 10 18 9 43 -4z m252 -171 c20
-24 50 -71 67 -106 27 -54 30 -69 25 -120 -2 -32 -13 -74 -23 -93 -18 -33 -19
-33 -22 -9 -7 51 -42 177 -66 239 -31 78 -42 131 -28 131 6 0 27 -19 47 -42z
m-5212 -87 c43 -39 110 -121 104 -127 -2 -3 -36 26 -73 64 -38 38 -89 86 -114
107 l-45 38 50 -28 c28 -16 63 -40 78 -54z m5022 -16 c95 -67 115 -96 115
-161 0 -30 -6 -70 -14 -88 l-14 -34 56 -38 c51 -35 57 -43 60 -79 4 -48 -52
-166 -103 -215 l-34 -33 -6 39 c-4 22 -12 68 -19 104 l-12 65 -18 -55 c-19
-57 -57 -137 -85 -179 -15 -24 -16 -22 -47 75 -18 54 -50 143 -73 197 -23 55
-39 103 -35 108 11 19 43 7 139 -51 55 -32 101 -58 103 -56 2 2 -3 24 -11 48
-9 24 -18 60 -22 81 -7 34 -5 37 17 37 13 0 34 -7 46 -16 12 -8 22 -13 22 -9
0 13 -62 127 -109 201 -28 43 -51 85 -51 92 0 23 32 12 95 -33z m-5585 -90 c0
-8 -4 -15 -10 -15 -5 0 -10 7 -10 15 0 8 5 15 10 15 6 0 10 -7 10 -15z m430
-191 c41 -37 50 -55 28 -53 -17 1 -94 89 -79 89 6 0 29 -16 51 -36z m5485 -80
c55 -45 57 -49 52 -85 -7 -52 -48 -138 -87 -182 -37 -43 -49 -47 -43 -13 4 20
-6 140 -24 279 -5 45 -5 47 20 47 15 0 48 -18 82 -46z m-5505 -37 c18 -21 30
-41 26 -44 -4 -4 -20 10 -37 30 -17 20 -35 37 -40 37 -5 0 -19 9 -30 19 -21
19 -21 19 13 8 19 -7 49 -29 68 -50z m-305 -27 c-6 -10 39 -82 104 -165 24
-30 41 -58 38 -61 -3 -3 -47 37 -99 88 l-95 93 20 33 c10 17 23 29 28 26 5 -3
7 -9 4 -14z m230 0 c28 -31 8 -37 -23 -7 -19 20 -22 27 -11 27 9 0 24 -9 34
-20z m-664 -183 c-10 -9 -11 -8 -5 6 3 10 9 15 12 12 3 -3 0 -11 -7 -18z
m5786 -79 c56 -29 99 -56 97 -60 -3 -4 1 -5 9 -2 19 7 177 -72 177 -89 0 -31
-53 -120 -119 -199 -83 -100 -106 -115 -97 -66 11 61 25 183 26 223 l0 40 -26
-40 c-15 -22 -48 -65 -74 -95 -26 -30 -55 -68 -66 -85 l-19 -29 -6 29 c-4 17
-7 50 -8 75 -1 57 -13 44 -39 -45 -24 -78 -46 -116 -60 -100 -15 17 -40 96
-57 178 -8 44 -24 95 -34 116 -26 51 -54 149 -47 167 9 23 46 17 124 -21 l72
-34 -6 34 c-11 72 17 72 153 3z m-5759 11 c-2 -6 -8 -10 -13 -10 -5 0 -11 4
-13 10 -2 6 4 11 13 11 9 0 15 -5 13 -11z m-78 -139 c0 -5 -5 -10 -11 -10 -5
0 -7 5 -4 10 3 6 8 10 11 10 2 0 4 -4 4 -10z m5234 -198 c33 -22 46 -26 59
-18 21 13 49 -3 180 -103 88 -69 188 -140 232 -166 25 -15 11 -35 -68 -94 -57
-43 -180 -111 -200 -111 -3 0 3 28 13 63 9 34 20 91 23 127 6 64 6 64 -8 31
-8 -18 -15 -38 -15 -45 0 -6 -40 -31 -88 -56 -112 -58 -109 -56 -96 -39 15 18
34 143 33 211 -1 46 -4 40 -16 -48 l-15 -102 -39 -21 -39 -22 -1 58 c-1 53 -2
55 -10 26 -5 -18 -11 -33 -13 -33 -3 0 -5 39 -6 88 0 48 -4 124 -8 170 -11
119 5 136 82 84z m-378 -319 c45 -26 127 -79 183 -117 97 -65 101 -69 85 -87
-15 -17 -14 -20 31 -46 86 -51 84 -48 45 -82 -39 -33 -157 -96 -207 -110 -32
-9 -32 -9 -21 12 6 12 13 64 15 117 2 74 1 89 -7 70 -6 -13 -18 -32 -26 -42
-10 -10 -13 -25 -9 -40 4 -15 3 -18 -3 -10 -7 10 -16 9 -45 -3 l-37 -15 -1 92
c0 51 -4 111 -8 133 -6 32 -8 17 -12 -73 -4 -87 -9 -117 -22 -130 -16 -15 -17
-13 -17 28 0 25 -4 40 -8 34 -4 -6 -16 -16 -28 -22 -20 -10 -21 -7 -37 154
-24 229 -24 229 129 137z m-4966 -34 c0 -6 -4 -7 -10 -4 -5 3 -10 11 -10 16 0
6 5 7 10 4 6 -3 10 -11 10 -16z m1107 -75 c-3 -3 -12 -4 -19 -1 -8 3 -5 6 6 6
11 1 17 -2 13 -5z m3443 -97 c41 -39 96 -86 123 -106 26 -19 47 -38 47 -42 0
-3 -17 -13 -37 -20 l-37 -14 47 -25 c26 -14 47 -28 47 -31 0 -4 -13 -12 -30
-19 -16 -7 -30 -15 -30 -19 0 -4 25 -20 55 -36 30 -17 54 -34 52 -40 -4 -12
-100 -60 -139 -69 -21 -5 -28 -3 -28 9 0 8 -14 44 -32 80 -30 60 -33 63 -50
49 -9 -9 -24 -14 -32 -11 -22 9 -30 63 -13 95 12 26 12 33 -5 66 -19 38 -37
48 -34 20 0 -9 -5 -19 -11 -21 -16 -6 -36 45 -27 66 4 9 6 37 5 63 -6 109 17
110 129 5z m-441 -99 c25 -29 72 -80 104 -115 l59 -62 -44 -11 c-87 -22 -87
-23 -39 -58 l43 -32 -26 -10 c-15 -5 -33 -10 -40 -10 -14 0 -59 46 -102 104
-15 21 -30 33 -32 27 -11 -33 -65 2 -76 49 -10 42 6 55 43 36 l31 -16 -7 60
c-6 59 4 90 29 90 6 0 31 -24 57 -52z m-4019 32 c0 -5 -5 -10 -11 -10 -5 0 -7
5 -4 10 3 6 8 10 11 10 2 0 4 -4 4 -10z m3636 -52 c17 -18 51 -60 76 -93 25
-33 62 -76 82 -94 20 -19 36 -38 36 -42 0 -8 -103 -29 -142 -29 -38 0 -35 -12
9 -49 20 -17 34 -33 31 -37 -4 -3 -28 -11 -55 -18 l-48 -12 43 -29 c23 -15 42
-31 42 -36 0 -4 -13 -10 -29 -14 -61 -13 -189 83 -229 173 -14 32 -17 34 -20
15 -3 -19 -12 -24 -52 -29 l-50 -7 25 -29 c14 -16 25 -33 25 -38 0 -5 -21 -12
-46 -16 l-46 -6 32 -33 32 -33 -29 -10 c-23 -7 -37 -6 -68 9 -54 26 -72 45
-116 120 -61 101 -48 142 25 78 l35 -30 -16 33 c-20 39 -30 138 -15 138 6 0
24 -11 40 -25 l30 -25 -1 62 c-1 35 1 75 6 91 11 41 34 23 95 -76 65 -107 95
-142 121 -144 12 -1 41 -17 64 -35 37 -29 40 -30 25 -8 -30 42 -48 91 -48 126
0 42 10 42 55 3 l36 -32 -7 81 c-7 79 -1 132 14 132 5 0 22 -15 38 -32z
m-2612 -24 c11 -29 1 -25 -35 12 l-34 36 31 -15 c17 -9 34 -24 38 -33z m894
-67 c25 -52 55 -97 82 -122 l42 -40 -24 40 c-47 76 -83 195 -59 195 5 0 34
-31 65 -70 31 -38 58 -70 60 -70 2 0 3 32 2 71 -1 47 3 73 11 76 6 2 36 -40
67 -94 35 -62 76 -118 112 -153 l57 -55 -41 52 c-59 76 -105 213 -72 213 6 0
29 -27 53 -59 60 -85 67 -85 65 4 -2 111 9 112 70 7 24 -42 41 -87 44 -115 6
-47 5 -47 -25 -47 l-30 0 21 -23 c12 -13 22 -26 22 -30 0 -4 -20 -7 -45 -7
-49 0 -57 -10 -23 -32 27 -18 16 -38 -20 -38 -65 1 -146 78 -194 187 -10 24
-21 43 -24 43 -2 0 -2 -23 1 -51 l6 -51 -45 4 c-53 4 -57 -2 -18 -31 23 -17
25 -22 12 -31 -30 -20 -79 -11 -114 21 -45 40 -99 143 -93 175 2 13 0 24 -4
24 -5 0 -10 -6 -10 -12 -1 -7 -5 4 -9 25 -8 43 -2 89 11 81 5 -2 26 -42 47
-87z m-123 13 c31 -39 59 -68 63 -66 4 3 8 -4 8 -15 0 -15 -7 -19 -36 -19 -66
0 -79 9 -95 63 -17 58 -20 107 -5 107 5 0 34 -32 65 -70z m865 14 c36 -70 100
-155 110 -149 5 3 30 -13 54 -35 l45 -42 -20 41 c-11 22 -22 61 -26 86 -7 56
9 60 49 13 l28 -33 -6 57 c-4 31 -4 68 0 83 9 34 22 24 67 -48 18 -29 54 -80
81 -114 26 -35 48 -69 48 -77 0 -9 -16 -16 -46 -21 l-46 -7 22 -23 c29 -31 19
-45 -33 -45 l-41 0 33 -34 34 -35 -39 -7 c-29 -5 -47 -2 -73 12 -43 23 -107
112 -125 173 -8 28 -16 40 -20 32 -4 -6 -5 -18 -2 -26 3 -9 -4 -15 -21 -17
l-25 -3 21 -27 21 -27 -45 -7 -46 -6 26 -28 26 -27 -27 -6 c-28 -5 -94 20 -94
35 0 5 -4 7 -9 4 -25 -16 -133 176 -112 197 8 8 25 -4 68 -48 44 -45 52 -51
36 -24 -32 52 -58 148 -43 162 9 9 17 5 35 -15 13 -16 27 -28 30 -28 3 0 5 24
5 53 0 83 20 86 60 11z m-995 -32 c6 -4 41 -40 80 -80 l69 -73 -58 3 c-58 3
-59 3 -82 48 -38 74 -43 127 -9 102z m2288 -93 c12 -7 54 -42 92 -79 39 -37
83 -75 99 -85 l28 -19 -22 -18 c-34 -27 -52 -22 -93 27 -31 37 -42 44 -62 39
-38 -9 -64 5 -80 43 -18 43 -19 75 -3 91 15 15 14 15 41 1z m-3753 -24 c11
-13 10 -14 -4 -9 -9 3 -16 10 -16 15 0 13 6 11 20 -6z m4802 -132 c10 -9 18
-20 18 -25 0 -16 -18 -8 -34 17 -19 29 -11 33 16 8z m-545 -39 c-3 -3 -12 -4
-19 -1 -8 3 -5 6 6 6 11 1 17 -2 13 -5z m-216 -41 c16 -16 3 -20 -86 -27 -75
-5 -90 -7 -177 -25 -30 -7 -59 -11 -64 -10 -5 1 -26 -1 -47 -6 -24 -5 -42 -4
-49 3 -19 19 42 39 121 40 40 1 88 6 105 11 91 28 177 34 197 14z m86 11 c-3
-3 -12 -4 -19 -1 -8 3 -5 6 6 6 11 1 17 -2 13 -5z m-40 -10 c-3 -3 -12 -4 -19
-1 -8 3 -5 6 6 6 11 1 17 -2 13 -5z m708 -5 c11 -17 -1 -21 -15 -4 -8 9 -8 15
-2 15 6 0 14 -5 17 -11z m-3960 -49 c3 -5 1 -10 -4 -10 -6 0 -11 5 -11 10 0 6
2 10 4 10 3 0 8 -4 11 -10z m3925 -10 c0 -5 -5 -10 -11 -10 -5 0 -7 5 -4 10 3
6 8 10 11 10 2 0 4 -4 4 -10z m-3887 -24 c4 -10 -4 -18 -24 -25 -25 -9 -29 -8
-29 8 0 10 3 21 7 24 11 12 41 7 46 -7z m-188 -6 c3 -5 1 -10 -4 -10 -6 0 -11
5 -11 10 0 6 2 10 4 10 3 0 8 -4 11 -10z m2635 0 c0 -5 -10 -10 -22 -9 -22 0
-22 1 -3 9 11 5 21 9 23 9 1 1 2 -3 2 -9z m10 -30 c0 -5 -4 -10 -10 -10 -5 0
-10 5 -10 10 0 6 5 10 10 10 6 0 10 -4 10 -10z m-2627 -15 c-3 -9 -8 -14 -10
-11 -3 3 -2 9 2 15 9 16 15 13 8 -4z m2143 -16 c3 -6 1 -16 -5 -22 -14 -14
-14 -27 0 -27 5 0 7 5 4 10 -3 6 -1 10 4 10 14 0 14 -27 1 -35 -5 -3 -28 0
-50 6 -22 7 -36 15 -30 19 7 4 3 13 -10 25 -28 25 -25 33 13 37 34 4 61 -5 73
-23z m264 21 c0 -5 -7 -6 -17 -3 -11 4 -14 3 -9 -5 11 -18 -19 -15 -34 3 -11
13 -7 15 24 15 20 0 36 -4 36 -10z m60 -5 c0 -8 -2 -15 -4 -15 -2 0 -6 7 -10
15 -3 8 -1 15 4 15 6 0 10 -7 10 -15z m-782 -1 c12 -4 22 -13 22 -21 0 -10 6
-12 23 -8 36 12 41 11 45 -8 3 -15 -1 -18 -20 -15 -17 2 -24 -2 -26 -19 -2
-14 -8 -20 -18 -16 -7 3 -11 10 -8 15 4 6 -1 8 -14 4 -14 -5 -21 -1 -26 11 -3
10 -10 28 -16 41 -10 24 -4 27 38 16z m-1888 -19 c0 -8 -2 -15 -4 -15 -2 0 -6
7 -10 15 -3 8 -1 15 4 15 6 0 10 -7 10 -15z m2090 6 c0 -5 3 -16 6 -25 4 -11
1 -16 -10 -16 -10 0 -16 9 -16 25 0 14 5 25 10 25 6 0 10 -4 10 -9z m-45 -11
c3 -5 8 -20 10 -32 5 -22 3 -21 -19 4 -25 30 -42 27 -25 -3 6 -12 6 -19 0 -19
-16 0 -23 18 -16 40 7 21 39 27 50 10z m-2018 -7 c-4 -3 -1 -13 6 -22 11 -14
10 -14 -5 -2 -16 12 -16 31 -1 31 4 0 3 -3 0 -7z m1927 -39 c3 -8 2 -12 -4 -9
-6 3 -10 10 -10 16 0 14 7 11 14 -7z m-747 -30 c-3 -3 -12 -4 -19 -1 -8 3 -5
6 6 6 11 1 17 -2 13 -5z m-757 -14 c0 -5 -4 -10 -10 -10 -5 0 -10 5 -10 10 0
6 5 10 10 10 6 0 10 -4 10 -10z m3500 -65 c0 -8 -4 -15 -10 -15 -5 0 -7 7 -4
15 4 8 8 15 10 15 2 0 4 -7 4 -15z m-50 -74 c-1 -13 -3 -13 -15 3 -19 26 -19
42 0 26 8 -7 15 -20 15 -29z m-110 -41 c0 -5 -4 -10 -10 -10 -5 0 -10 5 -10
10 0 6 5 10 10 10 6 0 10 -4 10 -10z m190 0 c0 -5 -5 -10 -11 -10 -5 0 -7 5
-4 10 3 6 8 10 11 10 2 0 4 -4 4 -10z m-2652 -542 c-19 -33 -27 -37 -60 -26
-35 12 -30 21 12 20 17 0 28 4 25 9 -4 5 1 9 9 9 9 0 16 5 16 12 0 6 3 9 6 6
3 -3 -1 -17 -8 -30z m262 -3 c-7 -8 -20 -14 -29 -14 -13 1 -13 2 2 6 9 2 17 9
17 14 0 5 5 9 11 9 8 0 8 -5 -1 -15z m-355 -25 c3 -5 2 -10 -4 -10 -5 0 -13 5
-16 10 -3 6 -2 10 4 10 5 0 13 -4 16 -10z m-150 -28 c-8 -8 -25 10 -19 20 4 6
9 5 15 -3 4 -7 6 -15 4 -17z m51 6 c4 -7 4 -10 -1 -6 -4 4 -15 2 -24 -5 -14
-11 -14 -10 -2 6 16 20 18 21 27 5z m-111 -8 c-3 -5 -14 -10 -23 -9 -14 0 -13
2 3 9 27 11 27 11 20 0z m96 -33 c-6 -8 -7 -18 -3 -22 4 -5 2 -5 -5 -1 -14 8
-6 36 9 36 7 0 6 -5 -1 -13z m59 -6 c0 -6 -4 -13 -10 -16 -5 -3 -10 1 -10 9 0
9 5 16 10 16 6 0 10 -4 10 -9z m200 5 c0 -2 -9 -6 -20 -9 -11 -3 -18 -1 -14 4
5 9 34 13 34 5z m-170 -46 c0 -5 -2 -10 -4 -10 -3 0 -8 5 -11 10 -3 6 -1 10 4
10 6 0 11 -4 11 -10z m220 6 c0 -11 -19 -15 -25 -6 -3 5 1 10 9 10 9 0 16 -2
16 -4z m130 -15 c0 -6 -5 -13 -11 -16 -5 -4 -14 -18 -19 -31 -5 -13 -14 -24
-20 -24 -16 0 -12 27 5 34 8 3 15 9 14 13 -4 21 2 33 16 33 8 0 15 -4 15 -9z
m-210 -5 c0 -2 -7 -7 -16 -10 -8 -3 -12 -2 -9 4 6 10 25 14 25 6z m70 -31 c-7
-9 -15 -13 -19 -10 -3 3 1 10 9 15 21 14 24 12 10 -5z m45 5 c3 -5 -1 -10 -9
-10 -9 0 -16 5 -16 10 0 6 4 10 9 10 6 0 13 -4 16 -10z m-13 -62 c-16 -16 -15
-28 2 -28 8 0 17 10 19 23 l4 22 8 -22 c4 -13 14 -23 21 -23 8 0 14 -8 14 -19
0 -20 -27 -48 -37 -38 -3 4 2 9 11 13 22 8 20 21 -4 27 -13 3 -20 1 -18 -6 1
-7 -1 -24 -5 -39 -6 -21 -14 -28 -32 -28 -13 0 -27 5 -30 10 -9 14 -25 2 -25
-18 0 -9 -12 -22 -26 -29 -25 -12 -26 -11 -10 6 9 10 16 25 16 34 0 9 5 19 10
22 15 9 12 25 -5 25 -8 0 -15 5 -15 11 0 6 14 9 32 7 29 -3 34 1 51 36 10 21
21 35 24 32 4 -4 1 -12 -5 -18z m-222 2 c0 -5 -4 -10 -10 -10 -5 0 -10 5 -10
10 0 6 5 10 10 10 6 0 10 -4 10 -10z m52 -88 c-7 -2 -10 -8 -6 -13 3 -5 0 -9
-5 -9 -13 0 -13 3 -5 24 3 9 11 13 17 9 8 -5 7 -8 -1 -11z m68 8 c12 -8 11
-10 -7 -10 -12 0 -23 -6 -26 -12 -2 -7 -8 -10 -12 -6 -8 7 12 38 24 38 3 0 13
-5 21 -10z m-160 -10 c0 -5 -5 -10 -11 -10 -5 0 -7 5 -4 10 3 6 8 10 11 10 2
0 4 -4 4 -10z m16 -36 c-4 -9 -9 -15 -11 -12 -3 3 -3 13 1 22 4 9 9 15 11 12
3 -3 3 -13 -1 -22z m78 0 c14 -5 13 -9 -4 -34 -15 -21 -17 -29 -8 -32 7 -3 1
-7 -14 -10 -31 -6 -39 15 -12 30 13 7 14 13 5 31 -12 22 -1 28 33 15z m66 -4
c0 -5 -4 -10 -10 -10 -5 0 -10 5 -10 10 0 6 5 10 10 10 6 0 10 -4 10 -10z
m-134 -19 c-4 -5 0 -12 6 -14 8 -3 6 -6 -4 -6 -18 -1 -24 10 -11 22 9 10 15 8
9 -2z m-36 -21 c0 -5 -2 -10 -4 -10 -3 0 -8 5 -11 10 -3 6 -1 10 4 10 6 0 11
-4 11 -10z m135 -10 c-3 -5 -10 -10 -16 -10 -5 0 -9 5 -9 10 0 6 7 10 16 10 8
0 12 -4 9 -10z m65 -10 c0 -5 -4 -10 -10 -10 -5 0 -10 5 -10 10 0 6 5 10 10
10 6 0 10 -4 10 -10z m-170 -15 c0 -8 -4 -15 -10 -15 -5 0 -7 7 -4 15 4 8 8
15 10 15 2 0 4 -7 4 -15z m37 -63 c-10 -10 -17 -24 -17 -30 0 -14 -16 -16 -24
-4 -6 11 30 52 46 52 6 0 4 -8 -5 -18z m14 -29 c-8 -15 -10 -15 -11 -2 0 17
10 32 18 25 2 -3 -1 -13 -7 -23z m-128 -3 c-5 -19 -23 -29 -23 -12 0 7 20 32
26 32 1 0 0 -9 -3 -20z m167 -10 c0 -5 -4 -10 -10 -10 -5 0 -10 5 -10 10 0 6
5 10 10 10 6 0 10 -4 10 -10z m-215 -101 c-4 -5 -1 -9 4 -9 6 0 11 -8 11 -19
0 -23 -36 -35 -44 -14 -9 23 -25 6 -24 -26 1 -32 -8 -51 -24 -51 -7 0 -7 4 1
13 8 10 8 16 0 24 -14 14 25 73 47 73 8 0 14 7 14 16 0 8 5 12 10 9 6 -4 8
-11 5 -16z m-99 -76 c-10 -10 -19 5 -10 18 6 11 8 11 12 0 2 -7 1 -15 -2 -18z
m-72 8 c3 -5 -1 -11 -9 -14 -9 -4 -12 -1 -8 9 6 16 10 17 17 5z m41 -20 c3 -5
1 -12 -5 -16 -6 -4 -7 -11 -4 -17 4 -6 2 -8 -4 -4 -6 3 -10 15 -9 26 1 21 12
26 22 11z m30 -10 c3 -5 1 -12 -5 -16 -5 -3 -10 1 -10 9 0 18 6 21 15 7z
m-110 -22 c9 15 38 14 33 -1 -8 -22 -47 -19 -58 5 -10 20 -10 21 3 4 10 -12
17 -14 22 -8z m187 -47 c-4 -13 -7 -12 -12 4 -4 10 -5 23 -2 28 7 13 21 -16
14 -32z m-222 12 c0 -8 -5 -12 -10 -9 -6 4 -8 11 -5 16 9 14 15 11 15 -7z
m-1050 -278 c0 -3 -4 -8 -10 -11 -5 -3 -10 -1 -10 4 0 6 5 11 10 11 6 0 10 -2
10 -4z m15 -65 c3 -5 1 -12 -5 -16 -5 -3 -10 1 -10 9 0 18 6 21 15 7z m-13490
-883 c-1 -42 -9 -68 -23 -68 -4 0 -16 7 -26 15 -19 14 -19 15 0 37 16 20 17
21 1 9 -17 -13 -17 -13 -6 12 7 15 17 23 25 20 8 -3 14 0 14 6 0 6 3 11 8 11
4 0 7 -19 7 -42z m13300 31 c12 -19 -5 -23 -22 -6 -16 16 -16 17 -1 17 9 0 20
-5 23 -11z m-455 -1099 c0 -5 -7 -7 -15 -4 -8 4 -15 8 -15 10 0 2 7 4 15 4 8
0 15 -4 15 -10z m-1916 -526 c4 -10 1 -14 -6 -12 -15 5 -23 28 -10 28 5 0 13
-7 16 -16z m70 -40 c3 -8 2 -12 -4 -9 -6 3 -10 10 -10 16 0 14 7 11 14 -7z
m-384 -94 c0 -5 -4 -10 -9 -10 -5 0 -18 -3 -28 -6 -16 -5 -16 -4 1 10 23 18
36 20 36 6z m-56 -31 c5 -4 -8 -3 -30 2 -21 6 -41 13 -44 16 -9 9 65 -9 74
-18z"/>
<path d="M18330 13811 c0 -6 5 -13 10 -16 6 -3 10 1 10 9 0 9 -4 16 -10 16 -5
0 -10 -4 -10 -9z"/>
<path d="M18275 13791 c-3 -5 -1 -12 5 -16 5 -3 10 1 10 9 0 18 -6 21 -15 7z"/>
<path d="M18130 13710 c0 -5 4 -10 9 -10 6 0 13 5 16 10 3 6 -1 10 -9 10 -9 0
-16 -4 -16 -10z"/>
<path d="M17810 13371 c0 -6 4 -13 10 -16 6 -3 7 1 4 9 -7 18 -14 21 -14 7z"/>
<path d="M17632 12948 c2 -6 15 -18 28 -27 22 -15 23 -15 12 6 -12 22 -46 41
-40 21z"/>
<path d="M23532 10830 c0 -14 2 -19 5 -12 2 6 2 18 0 25 -3 6 -5 1 -5 -13z"/>
<path d="M22623 10235 c0 -38 2 -53 4 -32 2 20 2 52 0 70 -2 17 -4 1 -4 -38z"/>
<path d="M22774 10115 c-3 -8 -4 -20 -2 -27 3 -7 7 -1 10 15 6 29 1 36 -8 12z"/>
<path d="M22260 10016 c0 -2 8 -10 18 -17 15 -13 16 -12 3 4 -13 16 -21 21
-21 13z"/>
<path d="M19932 8298 c-7 -7 -12 -18 -12 -25 0 -11 5 -11 20 -3 11 6 20 17 20
25 0 18 -12 19 -28 3z"/>
<path d="M20740 17101 c0 -4 18 -28 41 -52 49 -52 60 -77 47 -103 -6 -10 -6
-21 -1 -25 4 -3 28 -31 53 -61 25 -30 51 -61 57 -68 21 -22 15 1 -10 38 -56
86 -53 132 4 58 37 -49 56 -70 45 -50 -15 25 49 12 86 -18 57 -47 157 -76 173
-50 4 7 12 7 25 0 28 -15 38 -12 16 5 -24 18 -14 20 17 4 l22 -12 -20 22 -20
23 55 -21 c29 -11 55 -19 57 -17 2 1 -21 15 -49 31 -29 15 -68 39 -85 52 -18
13 -121 64 -229 113 -108 50 -216 101 -240 114 -24 14 -44 21 -44 17z"/>
<path d="M20684 16933 c3 -23 10 -52 17 -64 10 -19 13 -20 20 -7 6 10 0 32
-17 64 l-25 49 5 -42z"/>
<path d="M20130 16331 c0 -6 5 -13 10 -16 6 -3 10 1 10 9 0 9 -4 16 -10 16 -5
0 -10 -4 -10 -9z"/>
<path d="M20140 16281 c0 -5 7 -12 16 -15 14 -5 15 -4 4 9 -14 17 -20 19 -20
6z"/>
<path d="M20140 16233 c0 -13 5 -23 10 -23 13 0 13 11 0 30 -8 12 -10 11 -10
-7z"/>
<path d="M20210 16236 c0 -8 5 -18 10 -21 6 -3 10 1 10 9 0 8 -4 18 -10 21 -5
3 -10 -1 -10 -9z"/>
<path d="M20201 16184 c0 -11 3 -14 6 -6 3 7 2 16 -1 19 -3 4 -6 -2 -5 -13z"/>
<path d="M20125 16181 c-3 -5 -1 -12 5 -16 5 -3 10 1 10 9 0 18 -6 21 -15 7z"/>
<path d="M20166 16162 c-3 -6 -1 -14 5 -17 15 -10 25 3 12 16 -7 7 -13 7 -17
1z"/>
<path d="M20028 16136 c-5 -23 -2 -26 37 -35 5 -1 11 2 13 8 2 6 -3 11 -12 11
-9 0 -16 6 -16 14 0 26 -18 27 -22 2z"/>
<path d="M20200 16136 c0 -9 5 -16 10 -16 6 0 10 4 10 9 0 6 -4 13 -10 16 -5
3 -10 -1 -10 -9z"/>
<path d="M20100 16116 c0 -8 5 -18 10 -21 6 -3 10 3 10 14 0 12 -4 21 -10 21
-5 0 -10 -6 -10 -14z"/>
<path d="M20057 16073 c-8 -13 21 -68 31 -59 3 3 0 11 -5 18 -6 7 -13 22 -15
33 -2 14 -6 16 -11 8z"/>
<path d="M20140 16060 c0 -5 7 -10 16 -10 8 0 12 5 9 10 -3 6 -10 10 -16 10
-5 0 -9 -4 -9 -10z"/>
<path d="M20310 16028 c0 -9 5 -20 10 -23 13 -8 13 5 0 25 -8 13 -10 13 -10
-2z"/>
<path d="M20247 16023 c-7 -11 10 -40 18 -31 4 4 3 14 -3 24 -5 9 -12 12 -15
7z"/>
<path d="M20160 16001 c0 -5 5 -13 10 -16 6 -3 10 -2 10 4 0 5 -4 13 -10 16
-5 3 -10 2 -10 -4z"/>
<path d="M20200 15986 c0 -9 5 -16 10 -16 6 0 10 4 10 9 0 6 -4 13 -10 16 -5
3 -10 -1 -10 -9z"/>
<path d="M20074 15924 c-4 -14 -2 -30 5 -37 8 -8 11 -4 11 16 0 15 5 27 11 27
5 0 7 5 4 10 -11 18 -24 11 -31 -16z"/>
<path d="M20170 15940 c0 -5 5 -10 11 -10 5 0 7 5 4 10 -3 6 -8 10 -11 10 -2
0 -4 -4 -4 -10z"/>
<path d="M20130 15879 c0 -5 5 -7 10 -4 6 3 10 8 10 11 0 2 -4 4 -10 4 -5 0
-10 -5 -10 -11z"/>
<path d="M20080 15861 c0 -5 5 -13 10 -16 6 -3 10 -2 10 4 0 5 -4 13 -10 16
-5 3 -10 2 -10 -4z"/>
<path d="M20071 15810 c1 -33 14 -49 29 -40 13 8 12 13 -7 32 -16 16 -23 18
-22 8z"/>
<path d="M20220 15751 c0 -5 5 -13 10 -16 6 -3 10 -2 10 4 0 5 -4 13 -10 16
-5 3 -10 2 -10 -4z"/>
<path d="M20242 15668 c-6 -6 -12 -19 -12 -27 0 -13 2 -13 16 1 9 9 15 21 13
27 -3 9 -8 8 -17 -1z"/>
<path d="M20355 15639 c-4 -6 -5 -13 -2 -16 7 -7 27 6 27 18 0 12 -17 12 -25
-2z"/>
<path d="M20111 15564 c0 -11 3 -14 6 -6 3 7 2 16 -1 19 -3 4 -6 -2 -5 -13z"/>
<path d="M20061 15511 c-10 -6 -10 -10 -1 -16 13 -8 24 -1 19 14 -3 6 -10 7
-18 2z"/>
<path d="M20306 15491 c-4 -7 -5 -15 -2 -18 9 -9 19 4 14 18 -4 11 -6 11 -12
0z"/>
<path d="M20087 15483 c-12 -11 -8 -41 6 -46 13 -4 36 21 37 41 0 13 -32 17
-43 5z"/>
<path d="M20346 15445 c-3 -8 -1 -15 4 -15 13 0 22 18 11 24 -5 3 -11 -1 -15
-9z"/>
<path d="M20105 15390 c-4 -6 -3 -16 3 -22 6 -6 12 -6 17 2 4 6 3 16 -3 22 -6
6 -12 6 -17 -2z"/>
<path d="M20160 15344 c0 -8 5 -12 10 -9 6 4 8 11 5 16 -9 14 -15 11 -15 -7z"/>
<path d="M19974 15329 c-3 -6 -1 -16 5 -22 8 -8 11 -5 11 11 0 24 -5 28 -16
11z"/>
<path d="M20410 15330 c0 -5 5 -10 10 -10 6 0 10 5 10 10 0 6 -4 10 -10 10 -5
0 -10 -4 -10 -10z"/>
<path d="M20064 15282 c-6 -4 -14 -20 -18 -36 -6 -24 -4 -27 9 -22 9 3 21 6
26 6 11 0 12 47 1 54 -4 2 -13 2 -18 -2z"/>
<path d="M22128 15242 c-58 -24 -72 -35 -107 -84 -21 -31 -37 -59 -33 -62 10
-11 22 -6 22 9 0 28 29 28 65 0 52 -39 135 -122 185 -185 24 -30 40 -47 37
-37 -4 10 -7 23 -7 28 0 6 -4 7 -10 4 -13 -8 -13 7 0 40 9 22 8 26 -4 22 -12
-5 -14 11 -11 106 l4 112 -35 38 c-19 20 -35 37 -37 36 -1 0 -32 -12 -69 -27z"/>
<path d="M20270 15204 c0 -8 5 -12 10 -9 6 3 10 10 10 16 0 5 -4 9 -10 9 -5 0
-10 -7 -10 -16z"/>
<path d="M20170 15196 c0 -22 17 -28 24 -10 9 22 8 24 -9 24 -8 0 -15 -6 -15
-14z"/>
<path d="M20520 15200 c0 -5 5 -10 10 -10 6 0 10 5 10 10 0 6 -4 10 -10 10 -5
0 -10 -4 -10 -10z"/>
<path d="M20077 15194 c-4 -4 -7 -14 -7 -23 0 -11 3 -12 11 -4 6 6 10 16 7 23
-2 6 -7 8 -11 4z"/>
<path d="M20295 15089 c-4 -6 -3 -15 3 -21 6 -6 11 -4 15 6 7 18 -9 31 -18 15z"/>
<path d="M20217 15083 c-4 -3 -7 -11 -7 -17 0 -6 5 -5 12 2 6 6 9 14 7 17 -3
3 -9 2 -12 -2z"/>
<path d="M20064 15049 c-10 -17 13 -36 27 -22 12 12 4 33 -11 33 -5 0 -12 -5
-16 -11z"/>
<path d="M20373 15035 c-8 -22 6 -33 17 -15 13 20 12 30 0 30 -6 0 -13 -7 -17
-15z"/>
<path d="M20137 15034 c-8 -8 1 -24 14 -24 5 0 9 7 9 15 0 15 -12 20 -23 9z"/>
<path d="M21906 14985 c-10 -15 -16 -28 -14 -29 2 -2 23 -16 48 -33 81 -55
202 -189 278 -308 17 -27 36 -55 42 -62 5 -7 10 -17 10 -23 0 -6 7 -13 15 -16
8 -4 15 -18 15 -33 0 -20 2 -23 10 -11 8 12 10 10 10 -9 0 -16 4 -21 14 -18
15 6 50 -25 41 -35 -7 -7 45 -58 80 -79 15 -9 27 -18 27 -22 -1 -7 102 -117
105 -113 2 1 -6 22 -18 45 -11 24 -18 45 -15 49 3 3 6 0 6 -7 0 -7 5 -9 10 -6
18 11 10 54 -15 79 -14 14 -25 32 -25 41 0 9 -25 40 -55 70 -39 39 -53 59 -48
71 4 11 3 15 -5 10 -21 -13 -78 65 -97 132 -9 31 -154 156 -283 243 -59 40
-110 77 -113 81 -3 5 -14 -3 -23 -17z m205 -136 c39 -35 104 -159 97 -181 -2
-6 -18 11 -35 39 -17 27 -61 87 -98 133 -61 74 -64 81 -35 64 18 -10 50 -35
71 -55z m395 -433 c18 -19 18 -27 0 -20 -14 5 -31 34 -20 34 3 0 12 -6 20 -14z
m44 -81 c11 -13 10 -14 -4 -9 -9 3 -16 10 -16 15 0 13 6 11 20 -6z"/>
<path d="M22201 14910 c97 -118 109 -131 109 -116 0 8 -36 52 -81 98 -79 81
-80 81 -28 18z"/>
<path d="M20130 14930 c0 -5 5 -10 10 -10 6 0 10 5 10 10 0 6 -4 10 -10 10 -5
0 -10 -4 -10 -10z"/>
<path d="M20080 14879 c0 -5 5 -7 10 -4 6 3 10 8 10 11 0 2 -4 4 -10 4 -5 0
-10 -5 -10 -11z"/>
<path d="M19978 14839 c-23 -40 -24 -67 -3 -49 8 7 15 21 15 32 0 15 5 19 20
15 17 -4 18 -2 9 14 -13 26 -21 24 -41 -12z"/>
<path d="M20197 14843 c-4 -3 -7 -11 -7 -17 0 -6 5 -5 12 2 6 6 9 14 7 17 -3
3 -9 2 -12 -2z"/>
<path d="M21725 14752 c-46 -58 -58 -78 -36 -59 l33 27 28 -20 28 -20 -5 20
c-3 11 0 27 7 35 10 12 30 5 142 -51 89 -46 133 -73 140 -90 6 -13 22 -31 35
-39 24 -16 32 -8 11 13 -24 24 3 11 54 -25 29 -21 49 -33 45 -27 -19 31 -408
263 -429 256 -12 -3 -10 6 7 38 9 17 14 30 13 30 -2 0 -34 -40 -73 -88z"/>
<path d="M20231 14814 c0 -11 3 -14 6 -6 3 7 2 16 -1 19 -3 4 -6 -2 -5 -13z"/>
<path d="M20366 14771 c-4 -7 -5 -15 -2 -18 9 -9 19 4 14 18 -4 11 -6 11 -12
0z"/>
<path d="M20050 14686 c0 -14 -4 -28 -10 -31 -5 -3 -10 -13 -10 -21 0 -8 5
-14 10 -14 6 0 10 7 10 15 0 8 10 20 22 26 20 11 20 13 5 24 -9 6 -14 15 -10
18 3 4 1 7 -5 7 -7 0 -12 -11 -12 -24z"/>
<path d="M20300 14650 c0 -5 5 -10 10 -10 6 0 10 5 10 10 0 6 -4 10 -10 10 -5
0 -10 -4 -10 -10z"/>
<path d="M22357 14649 c7 -7 15 -10 18 -7 3 3 -2 9 -12 12 -14 6 -15 5 -6 -5z"/>
<path d="M20075 14609 c-4 -11 -4 -23 -1 -27 10 -9 39 25 32 37 -11 17 -24 13
-31 -10z"/>
<path d="M20096 14565 c-4 -10 1 -15 14 -15 11 0 20 7 20 15 0 8 -6 15 -14 15
-8 0 -16 -7 -20 -15z"/>
<path d="M20050 14560 c0 -5 5 -10 10 -10 6 0 10 5 10 10 0 6 -4 10 -10 10 -5
0 -10 -4 -10 -10z"/>
<path d="M21907 14510 c16 -30 35 -56 42 -58 6 -2 2 12 -10 32 -11 20 -18 36
-15 36 11 0 59 -32 89 -59 15 -13 27 -21 27 -16 0 5 10 0 23 -11 36 -32 57
-47 57 -40 0 8 -138 109 -194 141 l-50 28 31 -53z"/>
<path d="M20070 14530 c0 -5 5 -10 11 -10 5 0 7 5 4 10 -3 6 -8 10 -11 10 -2
0 -4 -4 -4 -10z"/>
<path d="M20827 14503 c-4 -3 -7 -13 -7 -22 1 -13 3 -13 11 2 11 19 8 33 -4
20z"/>
<path d="M20077 14460 c-3 -11 -1 -20 4 -20 5 0 9 9 9 20 0 11 -2 20 -4 20 -2
0 -6 -9 -9 -20z"/>
<path d="M22335 14420 c3 -5 8 -10 11 -10 2 0 4 5 4 10 0 6 -5 10 -11 10 -5 0
-7 -4 -4 -10z"/>
<path d="M20055 14410 c-3 -5 -1 -10 4 -10 6 0 11 5 11 10 0 6 -2 10 -4 10 -3
0 -8 -4 -11 -10z"/>
<path d="M20696 14383 c-6 -14 -5 -15 5 -6 7 7 10 15 7 18 -3 3 -9 -2 -12 -12z"/>
<path d="M20627 14333 c-4 -3 -7 -11 -7 -17 0 -6 5 -5 12 2 6 6 9 14 7 17 -3
3 -9 2 -12 -2z"/>
<path d="M20836 14315 c-9 -26 -7 -32 5 -12 6 10 9 21 6 23 -2 3 -7 -2 -11
-11z"/>
<path d="M20110 14303 c0 -7 5 -15 11 -18 6 -4 8 -13 5 -21 -3 -8 -1 -14 4
-14 6 0 10 6 10 13 -1 15 -30 55 -30 40z"/>
<path d="M20510 14299 c0 -5 5 -7 10 -4 6 3 10 8 10 11 0 2 -4 4 -10 4 -5 0
-10 -5 -10 -11z"/>
<path d="M20707 14303 c-4 -3 -7 -11 -7 -17 0 -6 5 -5 12 2 6 6 9 14 7 17 -3
3 -9 2 -12 -2z"/>
<path d="M22584 14275 c-9 -19 -7 -28 11 -52 17 -21 20 -31 13 -41 -8 -9 -8
-16 0 -24 18 -18 27 19 12 46 -9 18 -9 28 0 46 6 12 10 23 8 24 -2 1 -10 7
-18 13 -12 9 -17 7 -26 -12z m23 -27 c-3 -8 -6 -5 -6 6 -1 11 2 17 5 13 3 -3
4 -12 1 -19z"/>
<path d="M20763 14253 c-9 -16 -21 -34 -26 -40 -5 -7 -6 -13 -1 -13 5 0 19 18
31 40 24 46 22 54 -4 13z"/>
<path d="M20447 14263 c-4 -3 -7 -11 -7 -17 0 -6 5 -5 12 2 6 6 9 14 7 17 -3
3 -9 2 -12 -2z"/>
<path d="M20640 14245 c-7 -9 -8 -15 -2 -15 5 0 12 7 16 15 3 8 4 15 2 15 -2
0 -9 -7 -16 -15z"/>
<path d="M22651 14244 c0 -11 3 -14 6 -6 3 7 2 16 -1 19 -3 4 -6 -2 -5 -13z"/>
<path d="M20495 14240 c-3 -5 -1 -10 4 -10 6 0 11 5 11 10 0 6 -2 10 -4 10 -3
0 -8 -4 -11 -10z"/>
<path d="M20110 14195 c0 -8 5 -15 10 -15 6 0 10 7 10 15 0 8 -4 15 -10 15 -5
0 -10 -7 -10 -15z"/>
<path d="M20426 14194 c-5 -14 -4 -15 9 -4 17 14 19 20 6 20 -5 0 -12 -7 -15
-16z"/>
<path d="M20566 14193 c-6 -14 -5 -15 5 -6 7 7 10 15 7 18 -3 3 -9 -2 -12 -12z"/>
<path d="M20147 14173 c-4 -3 -7 -11 -7 -17 0 -6 5 -5 12 2 6 6 9 14 7 17 -3
3 -9 2 -12 -2z"/>
<path d="M20367 14163 c-4 -3 -7 -11 -7 -17 0 -6 5 -5 12 2 6 6 9 14 7 17 -3
3 -9 2 -12 -2z"/>
<path d="M20506 14154 c-5 -14 -4 -15 9 -4 17 14 19 20 6 20 -5 0 -12 -7 -15
-16z"/>
<path d="M20675 14159 c-4 -6 -5 -12 -2 -15 2 -3 7 2 10 11 7 17 1 20 -8 4z"/>
<path d="M20165 14150 c-3 -5 -1 -10 4 -10 6 0 11 5 11 10 0 6 -2 10 -4 10 -3
0 -8 -4 -11 -10z"/>
<path d="M20093 14111 c-7 -10 -9 -21 -6 -24 7 -8 33 18 33 32 0 17 -14 13
-27 -8z"/>
<path d="M20447 14123 c-4 -3 -7 -11 -7 -17 0 -6 5 -5 12 2 6 6 9 14 7 17 -3
3 -9 2 -12 -2z"/>
<path d="M20200 14078 c0 -19 2 -20 10 -8 13 19 13 30 0 30 -5 0 -10 -10 -10
-22z"/>
<path d="M20395 14090 c-3 -5 -1 -10 4 -10 6 0 11 5 11 10 0 6 -2 10 -4 10 -3
0 -8 -4 -11 -10z"/>
<path d="M20542 14071 c-12 -17 -20 -31 -17 -31 11 0 46 42 43 51 -2 6 -14 -4
-26 -20z"/>
<path d="M20147 14073 c-4 -3 -7 -11 -7 -17 0 -6 5 -5 12 2 6 6 9 14 7 17 -3
3 -9 2 -12 -2z"/>
<path d="M20466 14015 c-17 -25 -16 -25 4 -13 11 7 20 18 20 25 0 19 -6 16
-24 -12z"/>
<path d="M20097 14023 c-3 -5 -1 -16 2 -26 6 -17 8 -17 20 -3 7 8 10 20 6 26
-7 12 -22 13 -28 3z"/>
<path d="M20180 14020 c0 -5 5 -10 10 -10 6 0 10 5 10 10 0 6 -4 10 -10 10 -5
0 -10 -4 -10 -10z"/>
<path d="M20227 14003 c-4 -3 -7 -13 -7 -22 1 -13 3 -13 11 2 11 19 8 33 -4
20z"/>
<path d="M20402 13980 c-7 -11 -9 -20 -4 -20 10 0 32 22 32 32 0 15 -15 8 -28
-12z"/>
<path d="M20506 13955 c-9 -26 -7 -32 5 -12 6 10 9 21 6 23 -2 3 -7 -2 -11
-11z"/>
<path d="M20654 13948 l-19 -23 23 19 c21 18 27 26 19 26 -2 0 -12 -10 -23
-22z"/>
<path d="M20170 13951 c0 -6 4 -13 10 -16 6 -3 7 1 4 9 -7 18 -14 21 -14 7z"/>
<path d="M20341 13942 c-17 -31 -13 -40 5 -14 9 13 14 26 11 29 -3 2 -10 -4
-16 -15z"/>
<path d="M20451 13914 c0 -11 3 -14 6 -6 3 7 2 16 -1 19 -3 4 -6 -2 -5 -13z"/>
<path d="M20587 13913 c-4 -3 -7 -11 -7 -17 0 -6 5 -5 12 2 6 6 9 14 7 17 -3
3 -9 2 -12 -2z"/>
<path d="M20275 13899 c-11 -17 1 -21 15 -4 8 9 8 15 2 15 -6 0 -14 -5 -17
-11z"/>
<path d="M20217 13866 c-3 -8 -2 -27 3 -43 9 -30 11 -27 13 25 2 33 -7 43 -16
18z"/>
<path d="M20167 13856 c-4 -10 -5 -21 -2 -24 9 -9 17 6 13 25 -3 17 -4 17 -11
-1z"/>
<path d="M20260 13825 c0 -8 2 -15 4 -15 2 0 6 7 10 15 3 8 1 15 -4 15 -6 0
-10 -7 -10 -15z"/>
<path d="M20379 13763 c-13 -16 -12 -17 4 -4 9 7 17 15 17 17 0 8 -8 3 -21
-13z"/>
<path d="M20166 13761 c-4 -7 -3 -17 2 -24 5 -7 12 -21 14 -32 2 -11 6 -15 9
-10 8 15 -17 80 -25 66z"/>
<path d="M20327 13743 c-4 -3 -7 -11 -7 -17 0 -6 5 -5 12 2 6 6 9 14 7 17 -3
3 -9 2 -12 -2z"/>
<path d="M20425 13730 c-3 -5 -1 -10 4 -10 6 0 11 5 11 10 0 6 -2 10 -4 10 -3
0 -8 -4 -11 -10z"/>
<path d="M20262 13695 c-6 -13 -7 -27 -3 -30 5 -2 12 7 15 21 9 35 2 40 -12 9z"/>
<path d="M20220 13685 c-7 -9 -11 -18 -8 -20 3 -3 11 1 18 10 7 9 11 18 8 20
-3 3 -11 -1 -18 -10z"/>
<path d="M20157 13663 c-2 -10 -8 -27 -12 -38 -5 -15 -5 -17 3 -5 9 12 14 12
31 -4 24 -22 28 -9 7 19 -8 11 -12 25 -9 32 3 7 1 13 -5 13 -5 0 -12 -8 -15
-17z"/>
<path d="M20316 13644 c-5 -14 -4 -15 9 -4 17 14 19 20 6 20 -5 0 -12 -7 -15
-16z"/>
<path d="M20255 13610 c-3 -5 -1 -10 4 -10 6 0 11 5 11 10 0 6 -2 10 -4 10 -3
0 -8 -4 -11 -10z"/>
<path d="M20112 13588 c-14 -14 -16 -28 -3 -28 9 0 24 30 18 36 -2 2 -9 -2
-15 -8z"/>
<path d="M20147 13574 c-6 -10 9 -42 16 -34 3 3 1 14 -3 24 -3 11 -9 15 -13
10z"/>
<path d="M20036 13542 c-2 -4 -1 -14 5 -22 7 -12 9 -10 9 8 0 23 -5 28 -14 14z"/>
<path d="M20106 13490 l-17 -35 22 21 c12 12 19 28 17 35 -3 8 -12 -1 -22 -21z"/>
<path d="M20041 13456 c-6 -7 -9 -21 -5 -30 10 -25 19 -19 20 14 1 34 1 35
-15 16z"/>
<path d="M20020 13379 c0 -5 5 -7 10 -4 6 3 10 8 10 11 0 2 -4 4 -10 4 -5 0
-10 -5 -10 -11z"/>
<path d="M19920 13299 c0 -5 5 -7 10 -4 6 3 10 8 10 11 0 2 -4 4 -10 4 -5 0
-10 -5 -10 -11z"/>
<path d="M19825 13209 c-11 -17 1 -21 15 -4 8 9 8 15 2 15 -6 0 -14 -5 -17
-11z"/>
<path d="M19725 13119 c-11 -17 1 -21 15 -4 8 9 8 15 2 15 -6 0 -14 -5 -17
-11z"/>
<path d="M19670 13029 c0 -5 5 -7 10 -4 6 3 10 8 10 11 0 2 -4 4 -10 4 -5 0
-10 -5 -10 -11z"/>
<path d="M19450 12825 c-7 -9 -10 -18 -7 -21 3 -3 10 4 17 15 13 25 8 27 -10
6z"/>
<path d="M19350 12759 c0 -5 5 -7 10 -4 6 3 10 8 10 11 0 2 -4 4 -10 4 -5 0
-10 -5 -10 -11z"/>
<path d="M18864 12244 c3 -9 6 -18 6 -20 0 -3 5 -2 10 1 16 10 12 35 -6 35
-11 0 -14 -5 -10 -16z"/>
<path d="M18690 12120 c-8 -5 -12 -12 -9 -15 4 -3 12 1 19 10 14 17 11 19 -10
5z"/>
<path d="M18644 12095 c-3 -8 -3 -18 0 -24 4 -5 2 -12 -4 -16 -16 -10 -32 -45
-20 -45 5 0 10 6 10 14 0 8 8 17 18 20 11 4 17 17 18 36 1 31 -13 41 -22 15z"/>
<path d="M18690 12080 c0 -5 5 -10 10 -10 6 0 10 5 10 10 0 6 -4 10 -10 10 -5
0 -10 -4 -10 -10z"/>
<path d="M18630 11989 c0 -5 5 -7 10 -4 6 3 10 8 10 11 0 2 -4 4 -10 4 -5 0
-10 -5 -10 -11z"/>
<path d="M18615 11940 c-3 -5 -1 -10 4 -10 6 0 11 5 11 10 0 6 -2 10 -4 10 -3
0 -8 -4 -11 -10z"/>
<path d="M18420 11840 c0 -5 4 -10 9 -10 6 0 13 5 16 10 3 6 -1 10 -9 10 -9 0
-16 -4 -16 -10z"/>
<path d="M18440 11820 c0 -5 5 -10 10 -10 6 0 10 5 10 10 0 6 -4 10 -10 10 -5
0 -10 -4 -10 -10z"/>
<path d="M18305 11680 c-3 -5 -1 -10 4 -10 6 0 11 5 11 10 0 6 -2 10 -4 10 -3
0 -8 -4 -11 -10z"/>
<path d="M18250 11565 c-10 -12 -10 -15 3 -15 8 0 17 7 21 15 3 8 2 15 -3 15
-5 0 -14 -7 -21 -15z"/>
<path d="M18151 11446 c-10 -12 -6 -26 10 -26 11 0 19 29 10 35 -5 2 -14 -1
-20 -9z"/>
<path d="M18110 11339 c0 -5 5 -7 10 -4 6 3 10 8 10 11 0 2 -4 4 -10 4 -5 0
-10 -5 -10 -11z"/>
<path d="M18075 11279 c-11 -17 1 -21 15 -4 8 9 8 15 2 15 -6 0 -14 -5 -17
-11z"/>
<path d="M18030 11195 c-7 -9 -10 -18 -7 -21 3 -3 10 4 17 15 13 25 8 27 -10
6z"/>
<path d="M17940 11125 c0 -8 5 -15 11 -15 8 0 8 -4 2 -12 -17 -22 -23 -47 -10
-42 22 8 35 49 22 68 -15 20 -25 21 -25 1z"/>
<path d="M18240 10641 c0 -6 4 -13 10 -16 6 -3 7 1 4 9 -7 18 -14 21 -14 7z"/>
<path d="M17721 10481 c-12 -7 -12 -13 -3 -24 7 -7 10 -17 7 -20 -3 -4 -2 -5
2 -2 4 4 13 57 8 55 0 0 -6 -4 -14 -9z"/>
<path d="M18130 10310 c6 -11 13 -20 16 -20 2 0 0 9 -6 20 -6 11 -13 20 -16
20 -2 0 0 -9 6 -20z"/>
<path d="M18216 10168 c3 -5 10 -6 15 -3 13 9 11 12 -6 12 -8 0 -12 -4 -9 -9z"/>
<path d="M18230 10141 c0 -5 7 -15 17 -22 15 -13 15 -12 4 9 -12 23 -21 28
-21 13z"/>
<path d="M17792 10121 c-12 -10 -22 -24 -22 -31 0 -7 12 -1 27 14 30 31 26 45
-5 17z"/>
<path d="M18380 9936 c0 -2 12 -12 28 -21 l27 -18 -19 21 c-17 20 -36 29 -36
18z"/>
<path d="M18032 9820 c0 -14 2 -19 5 -12 2 6 2 18 0 25 -3 6 -5 1 -5 -13z"/>
<path d="M22930 9738 c0 -7 9 -19 21 -26 19 -12 19 -11 10 7 -14 26 -31 36
-31 19z"/>
<path d="M18201 9644 c0 -11 3 -14 6 -6 3 7 2 16 -1 19 -3 4 -6 -2 -5 -13z"/>
<path d="M22861 9559 c-11 -25 -11 -33 -1 -42 10 -9 11 -9 6 0 -9 17 5 45 20
39 18 -7 18 8 1 22 -10 8 -16 3 -26 -19z"/>
<path d="M22900 9461 c0 -5 5 -13 10 -16 6 -3 10 -2 10 4 0 5 -4 13 -10 16 -5
3 -10 2 -10 -4z"/>
<path d="M18644 9419 c-3 -6 -2 -15 3 -20 5 -5 9 -1 9 11 0 23 -2 24 -12 9z"/>
<path d="M22751 9421 c-15 -10 -24 -41 -13 -41 4 0 12 11 19 25 6 14 10 25 10
25 -1 0 -8 -4 -16 -9z"/>
<path d="M22570 9220 c-8 -5 -12 -11 -9 -14 2 -3 11 -1 19 4 8 5 12 11 9 14
-2 3 -11 1 -19 -4z"/>
<path d="M22565 9084 c-49 -18 -95 -34 -101 -34 -5 0 -29 -9 -52 -20 -22 -11
-46 -20 -52 -20 -5 0 -10 -5 -10 -10 0 -6 -6 -10 -12 -9 -27 3 -48 -1 -48 -11
0 -5 9 -10 19 -10 10 0 22 -7 25 -16 10 -26 7 -28 -15 -8 -22 19 -22 19 -15
-8 l6 -26 -30 15 c-17 8 -28 19 -24 24 11 19 -23 19 -81 0 -33 -10 -123 -46
-200 -78 -77 -33 -177 -68 -223 -78 -46 -10 -86 -23 -89 -28 -3 -5 7 -6 24 -3
62 14 65 -43 4 -97 -33 -29 -40 -47 -17 -47 8 0 17 -8 21 -17 6 -17 7 -17 19
0 7 9 17 17 21 17 4 0 2 -6 -4 -13 -6 -8 -8 -17 -4 -20 10 -11 20 -8 21 6 4
46 19 69 31 48 6 -9 11 -10 15 -2 4 6 3 11 -3 11 -6 0 -8 7 -5 15 4 8 9 15 13
15 12 0 12 -52 0 -66 -14 -17 -33 -18 -23 -1 4 6 4 9 -1 5 -12 -12 -17 -70 -5
-63 6 4 7 11 4 17 -5 8 -1 9 10 5 10 -4 21 -7 24 -7 4 0 -6 -7 -22 -15 -26
-14 -31 -14 -47 1 -10 9 -23 13 -29 9 -8 -5 -5 -12 9 -22 12 -8 21 -20 20 -26
0 -8 -2 -7 -6 1 -5 12 -84 52 -101 52 -4 0 11 -12 33 -26 22 -15 32 -24 23
-20 -10 3 -18 0 -18 -6 0 -7 -5 -6 -15 2 -13 11 -18 10 -30 -6 -14 -18 -14
-18 -10 2 3 17 -2 23 -21 27 -23 4 -24 3 -8 -14 15 -16 14 -17 -5 -12 -12 3
-21 9 -21 13 0 5 -9 6 -20 3 -33 -9 -22 -30 13 -24 4 0 7 -4 7 -10 0 -7 -10
-9 -27 -5 -64 14 -98 18 -85 8 8 -5 12 -17 10 -26 -3 -16 -7 -15 -40 7 -37 26
-62 25 -30 0 15 -13 14 -14 -17 -9 -27 5 -32 3 -27 -9 6 -18 5 -18 -29 -5 -17
7 -24 7 -20 0 3 -6 -2 -10 -12 -10 -10 0 -36 -9 -58 -19 -50 -25 -78 -35 -88
-32 -5 1 -6 -3 -2 -9 3 -6 11 -7 17 -4 6 4 9 1 6 -7 -3 -8 -14 -13 -25 -11
-11 1 -26 -4 -33 -13 -7 -8 -24 -15 -39 -15 -15 0 -31 -4 -37 -9 -5 -5 -36
-12 -68 -15 -57 -6 -62 -9 -130 -73 -39 -38 -115 -108 -169 -157 -54 -49 -96
-90 -95 -92 2 -2 46 3 98 11 118 17 337 36 353 30 21 -8 543 -73 882 -110 329
-36 331 -36 545 -25 273 13 303 21 655 165 77 32 194 77 260 100 66 24 150 60
186 81 66 38 66 38 83 103 32 131 33 126 -30 218 -31 46 -60 83 -64 83 -3 0
-71 37 -151 83 -79 45 -223 116 -319 156 -141 60 -196 89 -286 152 -62 44
-113 79 -115 78 -2 0 -44 -16 -94 -35z m-134 -109 c8 -16 4 -33 -13 -70 l-23
-50 -3 48 c-2 33 -7 47 -18 47 -8 0 -14 10 -14 25 0 18 5 25 19 25 11 0 23 5
27 12 6 9 9 8 12 -2 2 -8 8 -24 13 -35z m76 -107 c-3 -7 -5 -2 -5 12 0 14 2
19 5 13 2 -7 2 -19 0 -25z m75 -10 c-6 -6 -15 -8 -19 -4 -4 4 -1 11 7 16 19
12 27 3 12 -12z m-91 -20 c11 -8 10 -9 -3 -5 -9 3 -19 1 -22 -6 -2 -7 -5 2 -5
18 0 21 2 26 8 16 5 -7 15 -18 22 -23z m129 11 c-7 -11 -14 -18 -17 -15 -3 3
0 12 7 21 18 21 23 19 10 -6z m308 -42 c-1 -7 10 -36 25 -65 31 -61 34 -81 12
-62 -8 7 -15 20 -15 29 0 9 -11 34 -24 55 -13 22 -22 46 -19 53 6 15 25 7 21
-10z m-358 3 c0 -5 -2 -10 -4 -10 -3 0 -8 5 -11 10 -3 6 -1 10 4 10 6 0 11 -4
11 -10z m-765 -40 c-3 -5 -12 -7 -19 -4 -8 3 -17 1 -21 -5 -8 -13 -25 -14 -25
-2 0 10 22 18 53 20 10 0 16 -3 12 -9z m1170 -10 c3 -5 1 -10 -4 -10 -6 0 -11
5 -11 10 0 6 2 10 4 10 3 0 8 -4 11 -10z m-1197 -83 c2 -10 -3 -17 -12 -17 -9
0 -16 2 -16 4 0 2 -3 12 -6 21 -5 13 -2 16 12 13 10 -2 20 -11 22 -21z m1142
17 c0 -10 -28 -34 -39 -34 -14 0 -14 8 2 25 12 14 37 20 37 9z m-1190 -49 c-7
-8 -16 -15 -21 -15 -5 0 -9 7 -9 15 0 9 9 15 21 15 18 0 19 -2 9 -15z m130
-15 c13 -8 13 -10 -2 -10 -9 0 -20 5 -23 10 -8 13 5 13 25 0z m1632 -10 c5 17
67 -30 87 -65 9 -16 19 -32 22 -35 4 -3 -4 -25 -17 -50 -19 -34 -24 -38 -19
-17 3 15 1 27 -5 27 -5 0 -10 8 -10 18 0 11 -9 27 -19 36 -18 17 -20 17 -40
-3 -12 -12 -21 -25 -21 -31 0 -5 -5 -10 -11 -10 -7 0 -4 11 6 26 13 21 15 31
6 48 -6 11 -15 33 -21 49 -9 27 -9 27 14 12 16 -11 25 -12 28 -5z m-1522 0 c0
-5 -2 -10 -4 -10 -3 0 -8 5 -11 10 -3 6 -1 10 4 10 6 0 11 -4 11 -10z m-148
-22 c-6 -6 -15 -8 -19 -4 -4 4 -1 11 7 16 19 12 27 3 12 -12z m78 -18 c0 -5
-2 -10 -4 -10 -3 0 -8 5 -11 10 -3 6 -1 10 4 10 6 0 11 -4 11 -10z m1547 -24
c-10 -24 -27 -19 -23 7 3 12 5 24 5 27 1 2 6 -1 12 -7 7 -7 9 -19 6 -27z m-29
-51 c0 -14 -4 -25 -9 -25 -5 0 -9 -8 -9 -17 0 -14 -3 -13 -16 5 -8 12 -20 19
-26 16 -6 -4 -9 -1 -7 5 3 7 9 13 14 13 6 0 19 7 30 14 11 8 20 14 21 14 1 0
2 -11 2 -25z m102 6 c0 -6 -4 -12 -10 -16 -5 -3 -7 -12 -4 -19 3 -8 1 -17 -5
-21 -12 -7 -14 9 -5 43 6 21 24 31 24 13z m-1810 -5 c0 -3 -4 -8 -10 -11 -5
-3 -10 -1 -10 4 0 6 5 11 10 11 6 0 10 -2 10 -4z m-210 -26 c0 -5 -2 -10 -4
-10 -3 0 -8 5 -11 10 -3 6 -1 10 4 10 6 0 11 -4 11 -10z m113 -5 c-3 -9 -8
-14 -10 -11 -3 3 -2 9 2 15 9 16 15 13 8 -4z m139 3 c-9 -9 -15 -9 -24 0 -9 9
-7 12 12 12 19 0 21 -3 12 -12z m298 -18 c-13 -8 -13 -10 -1 -10 8 0 12 -3 8
-6 -3 -3 -11 -3 -17 1 -8 5 -8 11 1 21 6 8 14 12 18 9 3 -3 -1 -10 -9 -15z
m-633 -5 c0 -10 -6 -14 -14 -10 -8 3 -20 5 -26 6 -7 0 -3 4 8 9 29 12 32 12
32 -5z m30 -51 c-3 -3 -12 -4 -19 -1 -8 3 -5 6 6 6 11 1 17 -2 13 -5z m1068
-14 c3 -6 -1 -7 -9 -4 -18 7 -21 14 -7 14 6 0 13 -4 16 -10z m115 -30 c0 -5
-4 -10 -10 -10 -5 0 -10 5 -10 10 0 6 5 10 10 10 6 0 10 -4 10 -10z m97 4 c-3
-3 -12 -4 -19 -1 -8 3 -5 6 6 6 11 1 17 -2 13 -5z m73 -25 c0 -16 -35 -28 -51
-18 -11 8 -10 9 6 7 16 -2 19 2 17 22 -4 21 -2 22 12 11 9 -7 16 -17 16 -22z
m-239 5 c24 -11 27 -14 10 -10 -14 3 -30 1 -35 -3 -24 -19 -54 -22 -60 -6 -4
13 -1 15 14 10 13 -4 22 -1 26 9 7 19 4 19 45 0z m328 -26 c-13 -5 -30 -16
-36 -25 -12 -15 -13 -15 -13 3 0 21 36 43 59 35 10 -3 6 -7 -10 -13z m-495 -2
c-8 -20 -28 -26 -45 -14 -12 8 -12 9 1 5 8 -2 21 2 28 10 17 17 23 17 16 -1z
m669 -13 c-7 -2 -19 -2 -25 0 -7 3 -2 5 12 5 14 0 19 -2 13 -5z m-348 -13 c3
-5 1 -10 -4 -10 -6 0 -11 5 -11 10 0 6 2 10 4 10 3 0 8 -4 11 -10z m95 0 c0
-5 -2 -10 -4 -10 -3 0 -8 5 -11 10 -3 6 -1 10 4 10 6 0 11 -4 11 -10z m90 6
c0 -2 -9 -6 -20 -9 -11 -3 -18 -1 -14 4 5 9 34 13 34 5z m100 -5 c0 -4 -11 -6
-25 -3 -14 2 -25 6 -25 8 0 2 11 4 25 4 14 0 25 -4 25 -9z m-45 -21 c4 -6 -5
-10 -19 -10 -14 0 -26 5 -26 10 0 6 9 10 19 10 11 0 23 -4 26 -10z m-462 -54
c4 -10 0 -12 -14 -9 -27 7 -34 23 -11 23 11 0 22 -6 25 -14z m237 -36 c0 -5
-4 -10 -10 -10 -5 0 -10 5 -10 10 0 6 5 10 10 10 6 0 10 -4 10 -10z"/>
<path d="M21651 8685 c-26 -9 -30 -13 -17 -18 17 -7 56 11 56 25 0 5 -1 7 -2
7 -2 -1 -18 -7 -37 -14z"/>
<path d="M21590 8680 c0 -5 5 -10 11 -10 5 0 7 5 4 10 -3 6 -8 10 -11 10 -2 0
-4 -4 -4 -10z"/>
<path d="M21602 8645 c-8 -10 -9 -15 -2 -15 7 0 9 -8 5 -19 -3 -11 0 -23 6
-27 9 -5 10 -2 6 9 -4 11 -1 17 8 17 8 0 15 -7 15 -15 0 -8 7 -15 15 -15 8 0
15 7 15 15 0 8 -7 15 -15 15 -9 0 -20 11 -25 25 -11 29 -11 29 -28 10z"/>
<path d="M21549 8601 c6 -10 7 -22 3 -26 -4 -5 -1 -5 6 -1 9 5 9 12 2 27 -6
10 -13 19 -16 19 -2 0 0 -8 5 -19z"/>
<path d="M20135 8590 c-3 -5 -2 -10 4 -10 5 0 13 5 16 10 3 6 2 10 -4 10 -5 0
-13 -4 -16 -10z"/>
<path d="M21520 8550 c-8 -5 -10 -10 -5 -10 6 0 17 5 25 10 8 5 11 10 5 10 -5
0 -17 -5 -25 -10z"/>
<path d="M20117 8413 c-12 -12 -7 -22 8 -17 8 4 15 10 15 15 0 11 -14 12 -23
2z"/>
<path d="M20235 8410 c-3 -5 -2 -10 4 -10 5 0 13 5 16 10 3 6 2 10 -4 10 -5 0
-13 -4 -16 -10z"/>
<path d="M20070 8200 c0 -5 5 -10 11 -10 5 0 7 5 4 10 -3 6 -8 10 -11 10 -2 0
-4 -4 -4 -10z"/>
<path d="M19965 8090 c-3 -5 1 -10 9 -10 9 0 16 5 16 10 0 6 -4 10 -9 10 -6 0
-13 -4 -16 -10z"/>
<path d="M20020 8096 c0 -2 7 -7 16 -10 8 -3 12 -2 9 4 -6 10 -25 14 -25 6z"/>
<path d="M19990 8035 c-7 -8 -9 -15 -6 -15 4 0 14 7 22 15 9 8 11 15 6 15 -5
0 -15 -7 -22 -15z"/>
<path d="M19736 7931 c-3 -5 1 -11 9 -14 9 -4 12 -1 8 9 -6 16 -10 17 -17 5z"/>
<path d="M19827 7933 c-4 -3 -7 -15 -7 -26 0 -25 9 -17 15 12 4 22 2 25 -8 14z"/>
<path d="M19876 7908 c3 -4 9 -8 15 -8 5 0 9 4 9 8 0 5 -7 9 -15 9 -8 0 -12
-4 -9 -9z"/>
<path d="M19625 7710 c-16 -17 -16 -20 -3 -15 9 4 19 13 22 21 7 19 2 18 -19
-6z"/>
<path d="M19356 7635 c-3 -9 0 -15 9 -15 9 0 12 6 9 15 -4 8 -7 15 -9 15 -2 0
-5 -7 -9 -15z"/>
<path d="M19031 7607 c2 -1 12 -9 22 -16 15 -12 17 -12 11 3 -3 9 -13 16 -22
16 -8 0 -13 -1 -11 -3z"/>
<path d="M18356 7494 c-10 -14 -16 -28 -13 -30 2 -3 12 7 21 22 10 14 16 28
13 30 -2 3 -12 -7 -21 -22z"/>
<path d="M18717 6749 c7 -7 15 -10 18 -7 3 3 -2 9 -12 12 -14 6 -15 5 -6 -5z"/>
<path d="M18565 6661 c-9 -16 9 -20 23 -5 10 12 10 14 -2 14 -8 0 -17 -4 -21
-9z"/>
<path d="M18460 6630 c8 -5 20 -10 25 -10 6 0 3 5 -5 10 -8 5 -19 10 -25 10
-5 0 -3 -5 5 -10z"/>
<path d="M18518 6623 c6 -2 18 -2 25 0 6 3 1 5 -13 5 -14 0 -19 -2 -12 -5z"/>
<path d="M18455 6539 c-11 -17 1 -21 15 -4 8 9 8 15 2 15 -6 0 -14 -5 -17 -11z"/>
<path d="M18516 6524 c-8 -22 -4 -25 11 -9 7 8 9 16 4 19 -5 3 -12 -1 -15 -10z"/>
<path d="M18555 6510 c3 -5 10 -10 16 -10 5 0 9 5 9 10 0 6 -7 10 -16 10 -8 0
-12 -4 -9 -10z"/>
<path d="M18245 6460 c-4 -6 6 -10 22 -10 22 0 25 2 13 10 -19 12 -27 12 -35
0z"/>
<path d="M18195 6401 c-3 -5 0 -13 6 -17 7 -4 9 -3 5 4 -3 6 2 13 11 15 16 4
16 5 1 6 -9 0 -19 -3 -23 -8z"/>
<path d="M18370 6320 c-13 -8 -12 -10 3 -10 9 0 17 5 17 10 0 12 -1 12 -20 0z"/>
<path d="M18275 6302 c-8 -8 8 -32 22 -32 8 0 11 5 8 10 -3 6 4 10 16 10 12 0
19 3 15 8 -8 7 -54 11 -61 4z"/>
<path d="M18228 6293 c-15 -4 -26 -23 -14 -23 2 0 11 -3 20 -6 11 -4 14 0 13
15 -1 12 -1 20 -2 20 0 -1 -8 -3 -17 -6z"/>
<path d="M18150 6180 c-14 -11 -20 -20 -13 -20 7 0 10 -6 7 -14 -3 -8 3 -16
16 -19 18 -4 19 -3 9 9 -16 20 -5 28 20 14 12 -6 21 -7 21 -1 0 5 -12 12 -26
15 -21 6 -24 9 -14 21 17 20 10 18 -20 -5z"/>
<path d="M18238 6193 c7 -3 16 -2 19 1 4 3 -2 6 -13 5 -11 0 -14 -3 -6 -6z"/>
<path d="M15958 5043 c7 -3 16 -2 19 1 4 3 -2 6 -13 5 -11 0 -14 -3 -6 -6z"/>
<path d="M15898 5033 c7 -3 16 -2 19 1 4 3 -2 6 -13 5 -11 0 -14 -3 -6 -6z"/>
<path d="M15780 5000 c0 -5 5 -10 10 -10 6 0 10 5 10 10 0 6 -4 10 -10 10 -5
0 -10 -4 -10 -10z"/>
<path d="M15325 4740 c-3 -5 -2 -10 4 -10 5 0 13 5 16 10 3 6 2 10 -4 10 -5 0
-13 -4 -16 -10z"/>
</g>
</svg>
