<?xml version="1.0" standalone="no"?>
<!DOCTYPE svg PUBLIC "-//W3C//DTD SVG 20010904//EN"
 "http://www.w3.org/TR/2001/REC-SVG-20010904/DTD/svg10.dtd">
<svg version="1.0" xmlns="http://www.w3.org/2000/svg"
 width="430.000000pt" height="222.000000pt" viewBox="0 0 430.000000 222.000000"
 preserveAspectRatio="xMidYMid meet">

<g transform="translate(0.000000,222.000000) scale(0.100000,-0.100000)"
fill="#000000" stroke="none">
<path d="M1107 2142 c-162 -163 -284 -361 -352 -569 -15 -49 -20 -53 -58 -63
-23 -6 -114 -31 -202 -54 -88 -24 -182 -49 -210 -55 -101 -24 -154 -83 -141
-155 14 -72 143 -214 260 -285 66 -39 210 -91 261 -93 30 -1 36 -5 41 -27 59
-297 181 -532 383 -743 l93 -98 422 1 c377 1 414 2 349 14 -74 13 -176 44
-251 76 -59 26 -185 100 -179 106 3 3 25 -7 49 -21 38 -22 169 -76 185 -76 3
0 -12 13 -34 29 -44 32 -110 97 -123 122 -7 12 31 55 163 186 l172 170 100 17
c55 9 132 26 172 38 l72 21 48 -43 c142 -125 333 -163 495 -99 29 12 54 -12
-352 328 -70 58 -97 88 -88 96 1 2 62 -32 133 -75 72 -44 137 -79 146 -80 9 0
64 18 122 40 l106 39 148 -86 c81 -47 149 -87 151 -88 8 -7 -64 -147 -115
-224 -163 -245 -435 -423 -726 -476 -65 -12 -29 -13 350 -14 l422 -1 79 79
c152 154 285 374 348 576 16 50 29 92 31 94 1 2 38 -15 81 -37 73 -39 250 -98
260 -88 2 3 -42 65 -99 137 -57 73 -125 160 -151 193 l-48 61 0 97 c0 95 0 97
36 145 42 56 93 102 147 135 128 77 196 129 237 180 54 67 100 154 134 255
l24 71 -319 -183 c-175 -101 -320 -181 -323 -177 -2 4 -11 32 -21 62 -62 188
-191 394 -345 548 l-73 72 -426 -1 c-276 -1 -406 -4 -368 -10 122 -18 290 -79
400 -146 l59 -36 -243 -243 -244 -244 -112 0 c-109 0 -113 1 -118 23 -3 12
-13 63 -23 112 l-17 90 -47 15 c-27 8 -48 18 -48 22 0 4 20 10 44 13 70 11 68
33 -9 73 -18 9 -16 12 17 28 34 16 37 21 47 83 7 36 14 79 17 95 6 27 5 28
-27 21 -66 -14 -190 -67 -251 -108 -137 -90 -253 -239 -305 -391 l-26 -76
-154 0 -154 0 6 23 c23 75 135 237 230 332 163 162 397 283 607 313 44 7 -64
10 -363 11 l-425 1 -77 -78z m1973 -423 c0 -5 -10 -9 -21 -9 -18 0 -19 2 -9
15 12 15 30 12 30 -6z m87 -160 c17 -41 35 -87 39 -103 l7 -29 -64 7 c-35 4
-67 10 -71 12 -18 12 25 198 45 191 6 -2 26 -37 44 -78z m93 -546 c0 -26 -33
-186 -46 -227 -16 -48 -17 -49 -29 -25 -17 34 -57 187 -53 206 5 24 128 68
128 46z m-2140 -93 c13 -9 13 -10 0 -10 -8 0 -25 -3 -36 -6 -14 -4 -23 0 -27
10 -5 12 0 16 21 16 15 0 34 -5 42 -10z m363 -66 c39 -20 74 -38 76 -40 3 -3
-4 -14 -15 -24 -20 -20 -20 -20 -79 26 -52 40 -80 74 -60 74 3 0 38 -16 78
-36z m-257 -264 c6 0 18 -18 26 -39 15 -37 15 -41 -2 -56 -18 -16 -20 -14 -49
37 -37 64 -38 72 -8 64 12 -3 27 -6 33 -6z"/>
</g>
</svg>
