<?xml version="1.0" standalone="no"?>
<!DOCTYPE svg PUBLIC "-//W3C//DTD SVG 20010904//EN"
 "http://www.w3.org/TR/2001/REC-SVG-20010904/DTD/svg10.dtd">
<svg version="1.0" xmlns="http://www.w3.org/2000/svg"
 width="430.000000pt" height="222.000000pt" viewBox="0 0 430.000000 222.000000"
 preserveAspectRatio="xMidYMid meet">

<g transform="translate(0.000000,222.000000) scale(0.100000,-0.100000)"
fill="#000000" stroke="none">
<path d="M1955 2096 c-231 -75 -404 -242 -490 -471 -15 -38 -32 -73 -38 -77
-7 -4 -149 -8 -317 -8 l-305 0 -180 -49 c-99 -27 -227 -61 -284 -76 -126 -32
-156 -46 -181 -88 -42 -68 -12 -137 109 -257 99 -97 204 -157 330 -189 l75
-18 50 23 c84 39 188 58 285 51 47 -3 97 -10 111 -15 21 -8 16 -10 -40 -17
-109 -12 -240 -59 -305 -110 -20 -16 -20 -16 5 -35 82 -64 288 -146 411 -165
41 -6 46 -10 62 -50 31 -75 133 -219 196 -278 68 -63 159 -117 246 -147 32
-11 60 -20 62 -20 3 0 -22 21 -54 47 -76 60 -121 120 -140 183 -19 65 -6 108
49 154 l40 35 -23 68 c-43 131 -52 144 -143 213 -47 36 -86 71 -86 78 0 9 5
10 18 4 9 -5 60 -30 112 -55 l96 -45 29 -92 c16 -51 36 -95 43 -97 19 -8 272
15 356 32 39 8 106 24 148 36 l77 22 49 -44 c125 -112 278 -152 441 -114 35 9
67 18 72 21 8 5 -33 41 -324 284 -110 92 -145 127 -135 135 2 1 65 -35 141
-80 l138 -82 114 43 113 44 153 -90 c84 -49 154 -88 156 -87 1 2 -11 43 -26
92 -16 50 -32 109 -36 131 l-6 42 68 26 c37 14 79 29 92 34 22 8 28 3 73 -63
104 -156 257 -267 453 -328 131 -41 135 -53 -65 203 l-182 232 18 47 c46 122
119 201 279 301 134 83 183 133 247 250 24 44 62 136 79 193 l8 28 -32 -20
c-18 -10 -208 -120 -423 -244 l-391 -225 -134 15 c-74 8 -137 17 -140 21 -13
14 11 133 40 197 l30 65 -53 0 c-132 0 -248 -46 -347 -137 l-60 -56 -302 13
c-166 7 -306 16 -311 20 -4 5 -18 55 -30 111 l-21 104 -55 20 -55 20 52 9 c31
5 54 15 58 24 7 18 10 15 -39 39 l-40 20 35 18 c18 10 35 19 37 20 3 2 32 164
32 178 0 11 -20 8 -95 -17z"/>
</g>
</svg>
